<svg xmlns="http://www.w3.org/2000/svg" viewBox="0 0 233.43 233.42"><defs><style>.cls-1{fill:#0b2863;}.cls-2{fill:#fff;}</style></defs><title>Asset 4</title><g id="Layer_2" data-name="Layer 2"><g id="Final"><path class="cls-1" d="M2.27,123a7.3,7.3,0,0,0,1.78-1,11.75,11.75,0,0,1,.76-3.57,23.43,23.43,0,0,0,1.4-3.31s-.38-6.74-.13-8.78.51-4.45,2-3.17a13.24,13.24,0,0,1,2.67,3.43,22.1,22.1,0,0,1,1,2.67,2.68,2.68,0,0,0,1.53.51,11.33,11.33,0,0,0,2.41-.38,14.85,14.85,0,0,1,2.42-4.58c1.91-2.42,3.06-2.8,3.44,1s.63,5,.38,5.72a33.17,33.17,0,0,0-.76,4.33c0,1.27.51,2.92.63,4.07s.13,4.08-1.65,8.53-2,6.1-2.42,6.87l-.89,1.78s.63,2.8,0,4.2-1.78,3-3.94,5.47c-.68.76-1.31,1.36-1.88,2,6.38-.21,15.59-.61,18.18-1.25a52.42,52.42,0,0,1,12.53,1s6.85-1.69,8.48.45a10,10,0,0,1,1.84,4.19s5.51.71,8.16-.21c0,0,1.74-1,1.84.41,0,0,1.13,5.1,0,5.31,0,0-3.16,4.07-5.31,4.79,0,0-6.22,4.8-13.36,5.72,0,0-12.65,8.56-16.53,9.28,0,0-.09.37-.22,1a24.33,24.33,0,0,1,5.88,1.27s10,1.25,12.22,1c0,0,4,2,7.24-2.49,0,0-1.75-8.48,4.48-.75,0,0,2.75-4.24,8-.5,0,0,5.48,3.24,7.73,5.49,0,0,4.24,2,6.24,3.24a5.64,5.64,0,0,1,4.23,5s0,1.5-3,3c0,0,.5,2.49-3.49,3.24,0,0-11.23,1.75-15.72.5a45.46,45.46,0,0,0-16,9.93A116.79,116.79,0,0,0,63.2,220.42c.27-.47.52-.94.81-1.44,3.81-6.52,7.75-7.07,10.75-8s7.61-1.5,9.65-2.31a15.87,15.87,0,0,1,2.18-1.09,3.51,3.51,0,0,0,1.77-2.72c.13-1.63-.28-2.59-.82-5.44s-1.09-4.49-1-6.11,1.77-.82,3.12.4a19.41,19.41,0,0,1,3.13,3.81,23.63,23.63,0,0,1,3.27-.55h3s1.49-1.49,3.4-3.53,1.63-.95,1.35,1.63a14.51,14.51,0,0,1-1.08,3.81s.13,4.63-.55,6.53A16.05,16.05,0,0,1,99,210.28c-.81.95-1.09,3.81-1.22,7.75s-1.91,7.35-2.58,9.11a9.08,9.08,0,0,0-.19,4.23,117.13,117.13,0,0,0,21.58,2c-1-2.83-1.36-6.41,1.83-8.49a24.38,24.38,0,0,0-1.2-2.56h-.05a3.42,3.42,0,0,0-2,2.6,1.77,1.77,0,0,1-3.42-.95,7.26,7.26,0,0,1,3.54-4.68,11.8,11.8,0,0,0-2.54-2.32s-6.48,2.42-6.56-2.23c0,0-.14-5.12,3.77-7.6a6.88,6.88,0,0,1,1.9-.79,5.39,5.39,0,0,1,3.79-4.57,6.28,6.28,0,0,1,.86,4.74,7.7,7.7,0,0,1,4.32,4.44s3,1.22,5,2.21c2.78,1.37,6.32,4.59,7.44,7.1a13.52,13.52,0,0,1-.13,11.94c.3,0,.6-.07.9-.12a4.31,4.31,0,0,0,.39-.48c1.9-2.71,1.8-8.2.13-11.68-2-4.14-5.69-6.56-6.79-10.11-1.32-4.21-.65-7.74,1.77-10.34,2.56-2.76,6.39-3.24,9.35-2.8a19.11,19.11,0,0,1,8.8,4.08c-8.54,6.82,5.43,11.62.06,26.88a14.65,14.65,0,0,1-.76,1.75,115.84,115.84,0,0,0,12.15-4c-1.66-1.47-3-3.1-3.3-4.71,0,0-4.06-10.81-1.21-15.43,0,0,2.49-7.19,3.42-8.12,0,0-2.78.36-2-2.42a1.47,1.47,0,0,1,.92-.42s1.28-.71-.14-.86c0,0-2.28-.78-2.49-.43,0,0,.28-1.06,2.14-1.06,0,0-.08-2.13,1.42-2.28,0,0,1.28-2.89,1.71-1.12,0,0,1.41-3,2-1.16,0,0,2.13-1.84,2,0,0,0,2.78-1,1.56,1,0,0,1.64.36.36,1.78l-3.21.35s4.77.29,2.78,2.14c0,0,5.55.57,6.33,9.32,0,0,1.22,6.62,1.93,7.48,0,0,5.19,4.27,9.46,2.91,0,0-3.06-11.17,9-16.65,0,0,7.38-6,14.05-3.7.12-.15.25-.28.37-.43a39.86,39.86,0,0,1-3.18-5.91,61,61,0,0,1-2.24-7.11,11.32,11.32,0,0,1-1.71-3.16c-.4-1.44-.8-4.47-.8-4.47s-2.49,1.31-3.28,1.71a9.94,9.94,0,0,1-2.77.13c-.92,0-.26-2.77-.26-2.77a10.68,10.68,0,0,1-3.3-1.84c-1.18-1.05-.52-1.31.66-2.37s2.5-1.31,3.69-2.37a2.91,2.91,0,0,0,1-2.5c.13-.79.66-.92,1.32-1.71a13.11,13.11,0,0,0,1.85-2.9,25.69,25.69,0,0,0-.14-4.34,3.71,3.71,0,0,1,.8-2.24s.38,1.31.91,2.9a7.4,7.4,0,0,0,2.24,2.89s.53-1.45,1.19-3a5.73,5.73,0,0,1,1.84-2.24,10.13,10.13,0,0,1,1.71,2.89c.92,2,.53,6.45.53,6.45s.92,1.71,2.5,4.09a23,23,0,0,0,8.69,7.1,13.37,13.37,0,0,0,2.29.67c1.34-2.52,2.58-5.11,3.74-7.73-6.48-4.58-14.58-12.44-12.47-22.14,0,0,1.39-8.22,5.06-12,0,0,4.29-10.24.5-16.05,0,0-1.77-3.54-1.64-4.68,0,0-4.17-1.13-5.19-1.51,0,0-5.68,2.4-3.66-.76l3-3.29c.81-.88.91-2.29,2-3.17,2.54-2.06,6.79-1.13,8.91,1a23.66,23.66,0,0,1,4.17,7.09,22.45,22.45,0,0,1,1.85,6.94s.63,11.37.13,14.14c0,0,.25,7.65,5.25,8.58A116.71,116.71,0,1,0,0,116.71c0,2.28.08,4.53.21,6.77C1.27,123.28,1.85,123.14,2.27,123Z"/><path class="cls-1" d="M203.57,193.56l.92,0,.16-.18Z"/><path class="cls-2" d="M59,136.43H40.18V73.1H58.53c10.27,0,14.64,5.14,14.64,14.17v5.14c0,6.56-2.66,10.26-8.08,11.4,6.18,1.24,8.75,5.52,8.75,11.69v6.76C73.84,131.29,69.28,136.43,59,136.43Zm5.32-49.35c0-3.62-1.43-6.19-5.71-6.19H49.21v20h8.37c4.47,0,6.75-2.47,6.75-7.13V87.08Zm.48,28.05c0-4.66-2.38-7.13-6.76-7.13H49.21v20.62H59c4.27,0,5.8-2.56,5.8-6.08Z"/><path class="cls-2" d="M135.13,137.85c-12,0-17.69-8.27-17.69-17.59v-31c0-9.32,5.71-17.5,17.69-17.5s17.2,7.42,17.2,16.64v6.85h-8.08V88.6c0-5.32-2.94-8.85-8.84-8.85s-8.94,3.62-8.94,8.47v33.09c0,4.84,2.95,8.46,8.94,8.46s8.84-3.42,8.84-8.84v-6.66h8.08v6.85C152.33,130.34,147.11,137.85,135.13,137.85Z"/><path class="cls-2" d="M184.12,136.43l-3.33-15.5H167.1l-3.32,15.5H155L169.38,73.1h9.51l14.36,63.33ZM174,87.27l-5.23,26h10.46Z"/><path class="cls-2" d="M105.63,136.43l-3.33-15.5H88.6l-3.32,15.5H76.53L90.89,73.1h9.51l14.35,63.33ZM95.45,87.27l-5.23,26h10.46Z"/></g></g></svg>