<svg xmlns="http://www.w3.org/2000/svg" viewBox="0 0 329.59 290.29"><defs><style>.cls-1{fill:#0b2863;}.cls-2{fill:#fff;}</style></defs><title>Asset 1</title><g id="Layer_2" data-name="Layer 2"><g id="Final"><path class="cls-1" d="M53,179.91a7.06,7.06,0,0,0,1.78-1,11.56,11.56,0,0,1,.77-3.57A24.84,24.84,0,0,0,57,172s-.38-6.74-.13-8.78.51-4.45,2-3.17a13.24,13.24,0,0,1,2.67,3.43,22.1,22.1,0,0,1,1,2.67,2.63,2.63,0,0,0,1.52.51,11.47,11.47,0,0,0,2.42-.38,14.85,14.85,0,0,1,2.42-4.58c1.91-2.42,3-2.8,3.44,1s.63,5,.38,5.72a33.06,33.06,0,0,0-.77,4.33,38.49,38.49,0,0,0,.64,4.07c.13,1.27.13,4.08-1.65,8.53s-2,6.1-2.42,6.87-.89,1.78-.89,1.78.63,2.8,0,4.2-1.78,3.05-4,5.47c-.67.76-1.31,1.36-1.87,2,6.38-.21,15.59-.61,18.18-1.25a52.33,52.33,0,0,1,12.52,1s6.86-1.68,8.49.45a10.12,10.12,0,0,1,1.84,4.19s5.51.71,8.16-.21c0,0,1.74-1,1.84.41,0,0,1.12,5.1,0,5.31,0,0-3.17,4.07-5.31,4.79,0,0-6.22,4.8-13.36,5.72,0,0-12.65,8.56-16.53,9.28,0,0-.1.37-.22,1a24.12,24.12,0,0,1,5.87,1.27s10,1.25,12.23,1c0,0,4,2,7.23-2.49,0,0-1.75-8.48,4.49-.75,0,0,2.75-4.24,8-.5,0,0,5.49,3.24,7.74,5.49,0,0,4.24,2,6.23,3.24a5.65,5.65,0,0,1,4.24,5s0,1.5-3,3c0,0,.5,2.49-3.49,3.24,0,0-11.23,1.75-15.72.5a45.37,45.37,0,0,0-16,9.93A116.79,116.79,0,0,0,114,277.29c.26-.47.52-.94.81-1.44,3.81-6.52,7.75-7.07,10.74-8s7.62-1.5,9.66-2.31a16.17,16.17,0,0,1,2.17-1.09,3.46,3.46,0,0,0,1.77-2.72c.14-1.63-.27-2.59-.81-5.44s-1.1-4.48-.95-6.11,1.76-.82,3.12.4a19.72,19.72,0,0,1,3.13,3.81,23.63,23.63,0,0,1,3.27-.55h3s1.5-1.49,3.4-3.53,1.63-.95,1.36,1.63a14.71,14.71,0,0,1-1.09,3.81s.14,4.63-.54,6.53a16.23,16.23,0,0,1-3.26,4.89c-.82,1-1.09,3.81-1.23,7.75s-1.9,7.35-2.58,9.11a9.1,9.1,0,0,0-.18,4.23,117,117,0,0,0,21.57,2.05c-1-2.83-1.35-6.41,1.84-8.49a26.59,26.59,0,0,0-1.2-2.56h0a3.42,3.42,0,0,0-2,2.6,1.77,1.77,0,0,1-3.41-.95,7.25,7.25,0,0,1,3.53-4.68,12,12,0,0,0-2.53-2.32s-6.48,2.42-6.57-2.23c0,0-.13-5.12,3.78-7.6a6.75,6.75,0,0,1,1.9-.79,5.37,5.37,0,0,1,3.79-4.57,6.28,6.28,0,0,1,.86,4.74,7.69,7.69,0,0,1,4.31,4.44s3,1.22,5.06,2.21c2.78,1.37,6.32,4.59,7.44,7.1a13.55,13.55,0,0,1-.14,11.94c.3-.05.61-.07.9-.12a3.87,3.87,0,0,0,.4-.48c1.9-2.71,1.79-8.2.13-11.68-2-4.14-5.69-6.56-6.8-10.11-1.31-4.21-.64-7.74,1.78-10.34,2.56-2.76,6.38-3.24,9.35-2.8a19.11,19.11,0,0,1,8.8,4.08c-8.54,6.82,5.42,11.62.06,26.88a13.22,13.22,0,0,1-.77,1.75,116.79,116.79,0,0,0,12.16-4c-1.66-1.47-3-3.1-3.3-4.71,0,0-4.06-10.81-1.21-15.43,0,0,2.49-7.19,3.41-8.12,0,0-2.77.36-2-2.42a1.52,1.52,0,0,1,.93-.42s1.28-.71-.15-.86c0,0-2.27-.78-2.48-.43,0,0,.28-1.06,2.13-1.06,0,0-.07-2.13,1.42-2.28,0,0,1.29-2.89,1.71-1.12,0,0,1.42-3,2-1.16,0,0,2.13-1.84,2,0,0,0,2.77-1,1.56,1,0,0,1.64.36.35,1.78l-3.2.35s4.77.29,2.78,2.14c0,0,5.55.57,6.33,9.32,0,0,1.22,6.62,1.92,7.48,0,0,5.2,4.27,9.47,2.91,0,0-3.06-11.17,9-16.65,0,0,7.38-6,14.06-3.7.12-.15.25-.28.37-.43a40.78,40.78,0,0,1-3.19-5.91,62.21,62.21,0,0,1-2.23-7.1,11.45,11.45,0,0,1-1.71-3.17c-.4-1.44-.8-4.47-.8-4.47s-2.5,1.31-3.29,1.71a9.85,9.85,0,0,1-2.76.13c-.92,0-.27-2.77-.27-2.77a10.68,10.68,0,0,1-3.29-1.84c-1.18-1.05-.52-1.31.66-2.37s2.5-1.31,3.69-2.37a2.91,2.91,0,0,0,1.05-2.5c.13-.79.66-.92,1.31-1.71a12.41,12.41,0,0,0,1.85-2.9,25.55,25.55,0,0,0-.13-4.34,3.73,3.73,0,0,1,.79-2.24s.39,1.31.92,2.9a7.4,7.4,0,0,0,2.24,2.89s.53-1.45,1.18-3a5.7,5.7,0,0,1,1.85-2.24,10.13,10.13,0,0,1,1.71,2.89c.92,2,.52,6.46.52,6.46s.93,1.71,2.51,4.08a23,23,0,0,0,8.69,7.1,13.52,13.52,0,0,0,2.28.67c1.35-2.52,2.59-5.11,3.75-7.73-6.48-4.58-14.58-12.44-12.47-22.14,0,0,1.39-8.22,5.06-12,0,0,4.29-10.24.5-16.05,0,0-1.77-3.54-1.64-4.68,0,0-4.17-1.13-5.19-1.51,0,0-5.68,2.4-3.66-.76l3-3.29c.82-.88.92-2.29,2-3.17,2.54-2.06,6.79-1.13,8.9,1a23.49,23.49,0,0,1,4.18,7.09,22.71,22.71,0,0,1,1.84,6.94s.64,11.37.13,14.14c0,0,.26,7.65,5.26,8.58A116.71,116.71,0,1,0,50.77,173.59c0,2.27.08,4.52.21,6.76C52,180.15,52.62,180,53,179.91Z"/><path class="cls-1" d="M254.34,250.43l.92,0,.16-.18Z"/><path class="cls-2" d="M109.77,193.3H91V130H109.3c10.27,0,14.64,5.14,14.64,14.17v5.14c0,6.56-2.66,10.26-8.08,11.4,6.18,1.24,8.75,5.52,8.75,11.7v6.75C124.61,188.16,120,193.3,109.77,193.3ZM115.1,144c0-3.62-1.43-6.18-5.71-6.18H100v20h8.37c4.46,0,6.75-2.47,6.75-7.13V144Zm.47,28.05c0-4.66-2.37-7.13-6.75-7.13H100V185.5h9.79c4.28,0,5.8-2.57,5.8-6.09Z"/><path class="cls-2" d="M185.9,194.72c-12,0-17.69-8.27-17.69-17.59v-31c0-9.32,5.7-17.5,17.69-17.5s17.2,7.42,17.2,16.64v6.85H195v-6.66c0-5.32-3-8.85-8.84-8.85s-8.94,3.62-8.94,8.47v33.09c0,4.84,2.95,8.46,8.94,8.46s8.84-3.42,8.84-8.84v-6.66h8.08V178C203.1,187.21,197.87,194.72,185.9,194.72Z"/><path class="cls-2" d="M234.89,193.3l-3.33-15.5H217.87l-3.33,15.5h-8.75L220.15,130h9.51L244,193.3Zm-10.18-49.16-5.22,26h10.45Z"/><path class="cls-2" d="M156.39,193.3l-3.33-15.5H139.37l-3.32,15.5H127.3L141.65,130h9.51l14.36,63.33Zm-10.17-49.16-5.23,26h10.46Z"/><path class="cls-1" d="M30.53,124.65A4.79,4.79,0,0,1,26,128.13l2.47,1.47-.79,2.28L0,122.28l1.2-3.44,10.71,3.71a5.27,5.27,0,0,1-1.27-5.46c1-2.9,3.93-3.56,7.17-2.44l8.76,3C30.06,118.9,31.57,121.66,30.53,124.65Zm-13.11-6.32c-2.37-.82-3.72-.27-4.31,1.43s.21,3.28,2.2,4l7.89,2.73c2.11.74,3.65-.22,4.16-1.67.59-1.7-.1-3.06-2.47-3.88Z"/><path class="cls-1" d="M38.59,106a2.42,2.42,0,0,1-3.47,1.37,6.25,6.25,0,0,1,.17,5.62c-1.34,2.82-4,3.75-7,2.34l-.44-.2c-4.21-2-3.57-6.75-2.26-11.28L23,102.59a2.26,2.26,0,0,0-3.37,1.18c-.86,1.83-.28,2.64,1.39,3.43l1,.45-1.49,3.14-1.07-.51c-2.9-1.37-4.44-4.18-2.69-7.88,1.89-4,5.07-4.26,8.41-2.68L35,104.37a1,1,0,0,0,1.54-.59L39.06,105Zm-10.64-1c-1.23,3.74-.83,6,1.24,7l.47.23a2.2,2.2,0,0,0,3.16-1,3.32,3.32,0,0,0-1.33-4.47Z"/><path class="cls-1" d="M44.63,97.62c2.64,2.67,4.08,4.62,2.13,7.86l-.7,1.16-2.52-1.52.54-.9c.93-1.54.61-2.2-.34-3.18l-1.32-1.21-21-6.28,1.91-3.16,11,3.77L38.8,95.8l-3.48-3.18-8.47-8,1.88-3.12Z"/><path class="cls-1" d="M59.36,76.08a2.41,2.41,0,0,1-3.7.47A6.23,6.23,0,0,1,54.43,82c-2,2.4-4.81,2.63-7.35.52l-.37-.31c-3.59-3-1.78-7.41.62-11.47L45.13,69a2.26,2.26,0,0,0-3.56.3c-1.29,1.55-.92,2.48.5,3.66l.81.68-2.22,2.67-.91-.76c-2.47-2.05-3.26-5.16-.65-8.3,2.83-3.42,6-2.87,8.81-.51l8.39,7a1,1,0,0,0,1.63-.19l2.13,1.77Zm-10-3.65c-2.12,3.32-2.29,5.58-.53,7l.41.34a2.19,2.19,0,0,0,3.31-.22,3.33,3.33,0,0,0-.18-4.66Z"/><path class="cls-1" d="M54,60.46l10.2,10.18-2.6,2.61L47.05,58.73l2.17-2.18L52,58.91c-1.65-3.13-1-5.06,1.27-6.62l2.64,2.64C52.83,57.36,52.67,59.13,54,60.46Z"/><path class="cls-1" d="M74.21,62c-3,2.54-6.58,2.13-9.29-1.1l-4.85-5.79c-2.68-3.2-2.54-6.87.49-9.41S67,43.84,69.67,47l2.54,3L65.37,55.8,68.05,59c1.21,1.44,2.74,1.77,4.19.55s1.37-2.74.16-4.19l-.91-1.08L74,52.19l.59.71C77.26,56.1,77.24,59.44,74.21,62ZM66.78,48.65c-1.18-1.41-2.74-1.77-4.16-.58s-1.37,2.81-.18,4.22L64,54.18l4.34-3.64Z"/><path class="cls-1" d="M91.12,49.67a2.41,2.41,0,0,1-3.68-.6A6.23,6.23,0,0,1,84.71,54c-2.59,1.74-5.36,1.17-7.2-1.56l-.27-.4c-2.6-3.87.38-7.62,3.83-10.84l-1.6-2.37A2.26,2.26,0,0,0,76,38.1c-1.67,1.12-1.58,2.12-.55,3.65l.59.88-2.88,1.94-.67-1c-1.79-2.66-1.67-5.86,1.72-8.14,3.68-2.48,6.54-1.07,8.6,2l6.09,9a1,1,0,0,0,1.62.29L92,49.05Zm-8.6-6.34c-3,2.58-3.77,4.71-2.5,6.6l.3.44a2.2,2.2,0,0,0,3.24.73,3.32,3.32,0,0,0,1.14-4.52Z"/><path class="cls-1" d="M105.62,42c-3.58,1.69-6.91.4-8.71-3.41l-3.23-6.84c-1.79-3.77-.72-7.29,2.85-9s6.63-.26,8.41,3.51l.38.8-2.94,1.39-.62-1.32a2.72,2.72,0,0,0-3.84-1.53c-1.67.78-2.07,2.29-1.19,4.16l3.62,7.66c.89,1.87,2.29,2.47,4,1.68s2-2.27,1.24-3.94l-.6-1.27,2.94-1.39.38.79C110.05,37.06,109.23,40.26,105.62,42Z"/><path class="cls-1" d="M119.41,36.33c-3.73,1.31-7-.31-8.35-4.29l-2.5-7.13c-1.38-3.94.08-7.34,3.81-8.65s7,.45,8.34,4.39l2.5,7.13C124.61,31.76,123.14,35,119.41,36.33Zm-2.33-15.15A2.82,2.82,0,1,0,111.77,23l2.94,8.37c.61,1.75,1.91,2.55,3.65,1.94s2.26-2.06,1.65-3.8Z"/><path class="cls-1" d="M140.16,30.61a2.41,2.41,0,0,1-3.23-1.86,6.27,6.27,0,0,1-4.3,3.63c-3,.71-5.42-.81-6.17-4l-.12-.47c-1.06-4.53,3.06-7,7.42-8.78l-.65-2.78a2.27,2.27,0,0,0-3-1.91c-2,.46-2.24,1.43-1.82,3.23l.24,1-3.38.8-.27-1.16c-.73-3.12.52-6.08,4.49-7,4.32-1,6.5,1.32,7.34,4.91l2.49,10.61a1,1,0,0,0,1.42.84l.63,2.7Zm-5.81-9c-3.69,1.37-5.19,3.08-4.67,5.3l.12.51a2.2,2.2,0,0,0,2.78,1.83,3.33,3.33,0,0,0,2.67-3.83Z"/><path class="cls-1" d="M143.75,29.72,139.33.79,143,.24l4.43,28.92Z"/><path class="cls-1" d="M149,4.93,148.56,1,152,.7l.39,3.89Zm2.25,23.75-2-20.46,3.67-.37,2.05,20.46Z"/><path class="cls-1" d="M162.67,10.39l.44,11a14.34,14.34,0,0,0,1.39,6.37l-3.82.15a15,15,0,0,1-1.26-6.37l-.44-11-2.37.09-.12-3.12,2.59-.1-.14-3.64,3.42-1.37.19,4.87,2.85-.11.13,3.12Z"/><path class="cls-1" d="M168.7,27.76l.43-20.56,3.69.08-.43,20.56Zm.63-23.85L169.42,0l3.42.07L172.76,4Z"/><path class="cls-1" d="M182.06,28.86c-3.93-.4-6.16-3.23-5.74-7.43l.77-7.52c.41-4.15,3.18-6.61,7.12-6.21s6.1,3.36,5.68,7.51l-.76,7.52C188.7,26.92,186,29.25,182.06,28.86Zm4.32-14.71a2.82,2.82,0,1,0-5.6-.57l-.89,8.83c-.19,1.84.66,3.11,2.49,3.3s2.92-.9,3.1-2.73Z"/><path class="cls-1" d="M200.78,31.61l3.16-14.69c.37-1.72-.35-3-1.81-3.31-2.1-.45-3.86,2.27-4.15,3.65L195.15,30.4l-3.61-.77,4.33-20.11,3,.65-.6,4.05c1.73-2.82,3.59-3.72,5.65-3.28,3.22.69,4.42,3.29,3.7,6.64L204.43,32.4Z"/><path class="cls-1" d="M224.74,20.73l-6,16.39-3.47-1.25,6-16.4L219,18.66l1.06-2.93,2.23.81.66-1.82c1.43-3.92,4-5.75,7.43-4.5l1.36.49-1.06,2.93-.91-.33c-1.65-.6-2.65.21-3.26,1.91l-.91,2.52,2.85,1-1.07,2.93Z"/><path class="cls-1" d="M228.75,41.7c-3.58-1.67-4.77-5.07-3-8.9l3.18-6.86c1.75-3.78,5.17-5.2,8.76-3.54s4.67,5.17,2.92,9l-3.18,6.85C235.66,42,232.34,43.36,228.75,41.7Zm8.9-12.49a2.82,2.82,0,1,0-5.11-2.37l-3.73,8.05c-.78,1.68-.4,3.16,1.27,3.94s3,.1,3.83-1.57Z"/><path class="cls-1" d="M248,35.06l-7.22,12.46-3.19-1.85,10.3-17.79,2.66,1.54-1.56,3.31c2.61-2.39,4.64-2.23,6.72-.47l-1.87,3.23C250.65,33.12,248.9,33.42,248,35.06Z"/><path class="cls-1" d="M261.91,62.77a2.41,2.41,0,0,1-.58-3.68A6.21,6.21,0,0,1,255.82,58c-2.46-1.92-2.77-4.73-.74-7.32l.3-.38c2.87-3.67,7.36-2,11.49.29l1.76-2.25a2.26,2.26,0,0,0-.4-3.55c-1.59-1.25-2.51-.85-3.65.6l-.65.83-2.74-2.14.74-.93c2-2.53,5.06-3.4,8.28-.89,3.49,2.74,3,5.89.75,8.8l-6.71,8.58a1,1,0,0,0,.23,1.63l-1.71,2.18Zm3.36-10.14c-3.37-2-5.64-2.13-7-.33l-.32.41a2.19,2.19,0,0,0,.31,3.31,3.32,3.32,0,0,0,4.65-.31Z"/><path class="cls-1" d="M271.51,71.37,282,60.63c1.23-1.25,1.31-2.72.24-3.76-1.54-1.51-4.48-.14-5.46.87l-9.4,9.6-2.64-2.58,14.38-14.69,2.2,2.15-2.67,3.1c3-1.46,5-1.23,6.53.24,2.35,2.31,2,5.14-.42,7.59L274.18,74Z"/><path class="cls-1" d="M276.45,76.69,292,63.23l2.41,2.8L278.87,79.48Zm18.13-15.51,3-2.56,2.24,2.59-3,2.56Z"/><path class="cls-1" d="M290.74,95.47l12.59-8.76c1.26-.88,1.68-2,.95-3-1.18-1.7-4-.4-5.12.4l-11,7.66L286,88.69l12.63-8.78c1.26-.88,1.73-1.9,1-3-1.21-1.73-4-.47-5.18.34l-11,7.68-2.11-3L298.21,70.2,300,72.76,297.23,75c2.91-.74,4.65,0,5.77,1.6s.77,3.33-.57,5c2.53-.53,4.09.1,5.22,1.72,1.48,2.13.69,4.45-2,6.34l-12.8,8.91Z"/><path class="cls-1" d="M299.44,112.19a2.42,2.42,0,0,1,1-3.59,6.23,6.23,0,0,1-4.56-3.29c-1.43-2.77-.54-5.45,2.39-7l.43-.23c4.14-2.13,7.52,1.27,10.32,5.06l2.54-1.31a2.27,2.27,0,0,0,1.12-3.39c-.93-1.8-1.93-1.82-3.57-1l-.94.49L306.6,94.9l1-.54c2.85-1.47,6-1,7.9,2.65,2,3.94.3,6.62-3,8.31l-9.69,5a1,1,0,0,0-.47,1.57L300,113.16Zm7.3-7.82c-2.23-3.25-4.24-4.29-6.27-3.24l-.47.24a2.19,2.19,0,0,0-1.1,3.14,3.32,3.32,0,0,0,4.36,1.65Z"/><path class="cls-1" d="M301.18,115.46l27-11.32,1.43,3.4-27,11.32Z"/><path class="cls-1" d="M305.46,127.65c-1.31-3.91.34-6.74,3.72-7.86l1-.33,1,2.92-.87.29c-2.13.72-2.56,2.2-2,4s1.73,2.39,3.23,1.89,2.3-1.42,2.73-4.71c.28-3.61,1.5-5.92,4.21-6.83,2.95-1,6,.48,7.18,3.9,1.3,3.88-.12,6.3-3.49,7.42l-.75.26-.95-2.84.83-.28c1.46-.48,2-1.64,1.38-3.51-.53-1.59-1.63-2.24-2.84-1.84-1.5.51-2.06,1.62-2.45,5.13s-1.78,5.51-4.53,6.43S306.7,131.36,305.46,127.65Z"/></g></g></svg>