<?xml version="1.0" encoding="utf-8"?>
<!-- Generator: Adobe Illustrator 16.0.0, SVG Export Plug-In . SVG Version: 6.00 Build 0)  -->
<!DOCTYPE svg PUBLIC "-//W3C//DTD SVG 1.1//EN" "http://www.w3.org/Graphics/SVG/1.1/DTD/svg11.dtd">
<svg version="1.1"
	 id="Layer_1" sodipodi:docname="17-02-27_BCA_Logo_04.svg" inkscape:version="0.91 r13725" xmlns:dc="http://purl.org/dc/elements/1.1/" xmlns:cc="http://creativecommons.org/ns#" xmlns:rdf="http://www.w3.org/1999/02/22-rdf-syntax-ns#" xmlns:svg="http://www.w3.org/2000/svg" xmlns:sodipodi="http://sodipodi.sourceforge.net/DTD/sodipodi-0.dtd" xmlns:inkscape="http://www.inkscape.org/namespaces/inkscape"
	 xmlns="http://www.w3.org/2000/svg" xmlns:xlink="http://www.w3.org/1999/xlink" x="0px" y="0px" width="233.43px"
	 height="233.436px" viewBox="0 0 233.43 233.436" enable-background="new 0 0 233.43 233.436" xml:space="preserve">
<sodipodi:namedview  inkscape:current-layer="Layer_1" inkscape:window-maximized="0" inkscape:window-y="0" inkscape:window-x="0" fit-margin-bottom="0" fit-margin-right="0" inkscape:window-height="742" inkscape:window-width="1138" inkscape:pageshadow="2" inkscape:pageopacity="0" inkscape:cy="138.28" inkscape:cx="-173.13675" inkscape:zoom="0.72348485" fit-margin-left="0" fit-margin-top="0" showgrid="false" guidetolerance="10" gridtolerance="10" objecttolerance="10" borderopacity="1" pagecolor="#ffffff" bordercolor="#666666" id="namedview3524">
	</sodipodi:namedview>
<g id="Layer_1_1_" transform="translate(-147.409,-257.72)">
</g>
<g id="g3454" transform="translate(-147.409,-257.72)">
	<path id="path3456" inkscape:connector-curvature="0" fill="#082765" d="M150.903,380.766c1.02-0.387,1.781-1.02,1.781-1.02
		s0.128-2.287,0.766-3.562c0.765-1.398,1.396-3.31,1.396-3.31s-0.376-6.744-0.125-8.78c0.125-2.16,0.513-4.456,2.037-3.179
		c1.397,1.273,2.163,2.544,2.671,3.431c0.512,1.021,1.019,2.683,1.019,2.683s0.64,0.508,1.528,0.508c1.02,0,2.416-0.383,2.416-0.383
		s0.636-2.289,2.418-4.584c1.908-2.412,3.055-2.799,3.438,1.021c0.381,3.688,0.635,4.963,0.381,5.729
		c-0.126,0.764-0.765,3.18-0.765,4.324c0,1.271,0.512,2.927,0.639,4.072c0.126,1.271,0.126,4.072-1.654,8.525
		c-1.654,4.578-2.035,6.104-2.418,6.871c-0.383,0.762-0.893,1.775-0.893,1.775s0.637,2.801,0,4.197
		c-0.511,1.527-1.776,3.059-3.942,5.475c-0.68,0.76-1.311,1.363-1.871,1.973c6.381-0.205,15.584-0.605,18.178-1.252
		c0,0,5.979-0.395,12.523,0.977c0,0,6.854-1.688,8.487,0.449c0,0,1.635,2.146,1.841,4.184c0,0,5.508,0.719,8.157-0.205
		c0,0,1.738-1.02,1.838,0.406c0,0,1.124,5.105,0,5.312c0,0-3.164,4.072-5.306,4.793c0,0-6.225,4.795-13.365,5.715
		c0,0-12.647,8.562-16.525,9.283c0,0-0.097,0.373-0.227,0.979c2.401,0.307,4.686,0.721,5.88,1.271c0,0,9.979,1.252,12.223,1
		c0,0,3.993,1.994,7.235-2.494c0,0-1.749-8.479,4.485-0.75c0,0,2.748-4.236,7.984-0.496c0,0,5.486,3.242,7.732,5.484
		c0,0,4.239,1.994,6.235,3.238c0,0,3.738,0.754,4.237,4.99c0,0,0,1.498-2.99,2.998c0,0,0.497,2.488-3.493,3.238
		c0,0-11.229,1.75-15.715,0.5c0,0-9.139,2.996-16.023,9.928c5.818,4.592,12.081,8.641,18.722,12.07
		c0.268-0.479,0.521-0.947,0.812-1.438c3.808-6.525,7.752-7.072,10.742-8.025c2.993-0.947,7.614-1.492,9.658-2.311
		c0,0,1.354-0.812,2.174-1.084c0.813-0.41,1.496-1.225,1.769-2.727c0.135-1.635-0.271-2.586-0.815-5.439
		c-0.544-2.988-1.092-4.482-0.95-6.113c0.271-1.633,1.769-0.814,3.124,0.406c1.496,1.225,3.131,3.812,3.131,3.812
		s1.632-0.414,3.266-0.553h2.988c0,0,1.495-1.492,3.397-3.531c1.903-2.18,1.632-0.951,1.358,1.635
		c-0.408,2.449-1.089,3.803-1.089,3.803s0.138,4.631-0.543,6.531c-0.813,2.037-2.312,3.938-3.263,4.896
		c-0.813,0.951-1.087,3.807-1.227,7.748c-0.137,4.076-1.903,7.352-2.579,9.111c-0.449,1.164-0.366,2.402-0.182,4.229
		c6.993,1.318,14.197,2.039,21.572,2.055c-0.992-2.834-1.355-6.414,1.834-8.498c-0.307-0.758-0.699-1.627-1.197-2.562h-0.057
		c-0.376,0.121-1.488,0.648-2.031,2.604c-0.264,0.938-1.236,1.492-2.185,1.229c-0.941-0.26-1.493-1.23-1.23-2.182
		c0.717-2.578,2.229-3.994,3.534-4.678c-0.63-0.754-1.49-1.645-2.535-2.316c0,0-6.479,2.412-6.562-2.229
		c0,0-0.134-5.121,3.772-7.604c0.486-0.309,1.145-0.596,1.9-0.793c0.186-1.246,0.908-3.701,3.787-4.576c0,0,1.413,1.869,0.859,4.746
		c1.658,0.621,3.242,1.955,4.316,4.441c0,0,3.049,1.223,5.053,2.207c2.78,1.367,6.322,4.586,7.438,7.096
		c1.748,3.906,1.815,8.426-0.135,11.941c0.302-0.043,0.604-0.07,0.9-0.113c0.253-0.277,0.396-0.48,0.396-0.48
		c1.899-2.717,1.795-8.209,0.133-11.686c-1.979-4.137-5.688-6.561-6.797-10.111c-1.312-4.203-0.646-7.732,1.771-10.34
		c2.562-2.758,6.387-3.24,9.354-2.795c5.08,0.773,8.796,4.074,8.796,4.074c-8.535,6.826,5.426,11.621,0.062,26.883
		c-0.222,0.621-0.479,1.197-0.765,1.754c4.147-1.107,8.198-2.455,12.152-3.996c-1.657-1.467-2.994-3.096-3.301-4.703
		c0,0-4.058-10.812-1.207-15.438c0,0,2.487-7.189,3.412-8.111c0,0-2.771,0.354-1.987-2.424c0,0,0.213-0.287,0.923-0.426
		c0,0,1.282-0.709-0.146-0.855c0,0-2.271-0.777-2.482-0.428c0,0,0.281-1.061,2.136-1.061c0,0-0.072-2.141,1.421-2.281
		c0,0,1.285-2.887,1.709-1.121c0,0,1.42-3.004,1.994-1.156c0,0,2.133-1.848,1.988,0c0,0,2.775-0.994,1.562,0.996
		c0,0,1.642,0.359,0.354,1.781l-3.201,0.354c0,0,4.771,0.287,2.774,2.139c0,0,5.552,0.568,6.332,9.316c0,0,1.215,6.623,1.922,7.479
		c0,0,5.192,4.271,9.465,2.916c0,0-3.062-11.172,8.968-16.652c0,0,7.381-5.979,14.057-3.699c0.12-0.145,0.247-0.281,0.368-0.426
		c-0.979-1.527-2.251-3.688-3.186-5.91c-1.577-4.215-2.235-7.105-2.235-7.105s-1.316-1.711-1.712-3.16
		c-0.396-1.447-0.793-4.479-0.793-4.479s-2.499,1.314-3.288,1.709c-0.924,0.27-1.848,0.139-2.768,0.139
		c-0.923,0-0.266-2.771-0.266-2.771s-1.974-0.656-3.293-1.84c-1.186-1.051-0.521-1.316,0.659-2.373
		c1.184-0.92,2.501-1.312,3.688-2.367c1.185-1.053,0.922-1.713,1.054-2.504c0.131-0.787,0.657-0.918,1.312-1.709
		c0.664-0.924,1.716-2.24,1.85-2.896c0.132-0.789,0-3.027-0.134-4.348c0-1.311,0.793-2.236,0.793-2.236s0.393,1.314,0.92,2.896
		c0.524,1.58,2.233,2.896,2.233,2.896s0.528-1.445,1.188-3.021c0.79-1.584,1.846-2.24,1.846-2.24s0.793,0.789,1.714,2.896
		c0.921,1.973,0.521,6.449,0.521,6.449s0.924,1.711,2.506,4.08c1.712,2.367,4.869,5.398,8.688,7.107
		c0.694,0.289,1.475,0.49,2.287,0.66c1.345-2.521,2.588-5.104,3.745-7.729c-6.479-4.58-14.579-12.438-12.473-22.135
		c0,0,1.396-8.219,5.06-12.004c0,0,4.297-10.238,0.506-16.049c0,0-1.771-3.545-1.646-4.68c0,0-4.172-1.139-5.188-1.515
		c0,0-5.685,2.401-3.657-0.76c0,0,3.021-3.271,3.03-3.288c0.815-0.88,0.918-2.296,2.005-3.175c2.541-2.058,6.791-1.132,8.907,1.032
		c1.795,1.834,3.204,4.764,4.177,7.09c0.86,2.087,1.722,4.67,1.844,6.937c0,0,0.635,11.369,0.131,14.148c0,0,0.254,7.645,5.254,8.58
		c1.271-6.896,1.968-13.996,1.968-21.26c0-64.46-52.254-116.718-116.713-116.718c-64.461,0-116.716,52.256-116.716,116.718
		c0,2.27,0.082,4.52,0.211,6.762C149.906,381.014,150.492,380.867,150.903,380.766L150.903,380.766z"/>
	<path id="path3458" inkscape:connector-curvature="0" fill="#082765" d="M352.211,451.293c0,0,0.351,0.004,0.917,0.029
		c0.055-0.062,0.106-0.125,0.161-0.188C352.953,451.18,352.614,451.227,352.211,451.293z"/>
</g>
<g id="g3516" transform="translate(-147.409,-257.72)">
	<path id="path3518" inkscape:connector-curvature="0" fill="#FFFFFF" d="M224.796,397.869h-19.85v-66.76h19.349
		c10.825,0,15.438,5.416,15.438,14.938v5.416c0,6.913-2.809,10.818-8.521,12.021c6.516,1.306,9.225,5.814,9.225,12.327v7.119
		C240.435,392.455,235.624,397.869,224.796,397.869z M230.412,345.843c0-3.81-1.504-6.517-6.017-6.517h-9.922v21.051h8.821
		c4.711,0,7.116-2.604,7.116-7.516L230.412,345.843L230.412,345.843L230.412,345.843z M230.913,375.416
		c0-4.913-2.506-7.522-7.116-7.522h-9.322v21.749h10.324c4.511,0,6.114-2.701,6.114-6.41V375.416L230.913,375.416z"/>
	<path id="path3520" inkscape:connector-curvature="0" fill="#FFFFFF" d="M267.407,399.373c-12.632,0-18.646-8.723-18.646-18.545
		v-32.674c0-9.824,6.014-18.444,18.646-18.444c12.627,0,18.142,7.815,18.142,17.541v7.217h-8.521v-7.021
		c0-5.609-3.104-9.321-9.316-9.321c-6.312,0-9.428,3.812-9.428,8.924v34.882c0,5.111,3.111,8.928,9.428,8.928
		c6.214,0,9.316-3.609,9.316-9.326v-7.017h8.521v7.22C285.544,391.453,280.033,399.373,267.407,399.373L267.407,399.373z"/>
	<path id="path3522" inkscape:connector-curvature="0" fill="#FFFFFF" d="M320.132,397.869l-3.512-16.342h-14.438l-3.505,16.342
		h-9.227l15.141-66.76h10.023l15.138,66.76H320.132L320.132,397.869z M309.407,346.048l-5.513,27.362h11.026L309.407,346.048z"/>
</g>
</svg>
