<?xml version="1.0" encoding="UTF-8" standalone="no"?>
<!-- Generator: Adobe Illustrator 15.0.0, SVG Export Plug-In . SVG Version: 6.00 Build 0)  -->

<svg
   xmlns:dc="http://purl.org/dc/elements/1.1/"
   xmlns:cc="http://creativecommons.org/ns#"
   xmlns:rdf="http://www.w3.org/1999/02/22-rdf-syntax-ns#"
   xmlns:svg="http://www.w3.org/2000/svg"
   xmlns="http://www.w3.org/2000/svg"
   xmlns:sodipodi="http://sodipodi.sourceforge.net/DTD/sodipodi-0.dtd"
   xmlns:inkscape="http://www.inkscape.org/namespaces/inkscape"
   version="1.1"
   id="Layer_1"
   x="0px"
   y="0px"
   width="317.18201"
   height="276.56"
   viewBox="0 0 317.18201 276.56"
   enable-background="new 0 0 612 792"
   xml:space="preserve"
   inkscape:version="0.91 r13725"
   sodipodi:docname="17-02-27_BCA_Logo_04.svg"><metadata
     id="metadata3528"><rdf:RDF><cc:Work
         rdf:about=""><dc:format>image/svg+xml</dc:format><dc:type
           rdf:resource="http://purl.org/dc/dcmitype/StillImage" /><dc:title></dc:title></cc:Work></rdf:RDF></metadata><defs
     id="defs3526" /><sodipodi:namedview
     pagecolor="#ffffff"
     bordercolor="#666666"
     borderopacity="1"
     objecttolerance="10"
     gridtolerance="10"
     guidetolerance="10"
     inkscape:pageopacity="0"
     inkscape:pageshadow="2"
     inkscape:window-width="1138"
     inkscape:window-height="742"
     id="namedview3524"
     showgrid="false"
     fit-margin-top="0"
     fit-margin-left="0"
     fit-margin-right="0"
     fit-margin-bottom="0"
     inkscape:zoom="0.72348485"
     inkscape:cx="-173.13675"
     inkscape:cy="138.28"
     inkscape:window-x="0"
     inkscape:window-y="0"
     inkscape:window-maximized="0"
     inkscape:current-layer="Layer_1" /><g
     id="Layer_1_1_"
     transform="translate(-147.409,-257.72)" /><g
     id="g3454"
     transform="translate(-147.409,-257.72)"><path
       d="m 193.551,423.893 c 1.018,-0.387 1.782,-1.021 1.782,-1.021 0,0 0.128,-2.288 0.765,-3.562 0.763,-1.4 1.395,-3.31 1.395,-3.31 0,0 -0.376,-6.744 -0.125,-8.78 0.125,-2.16 0.512,-4.456 2.037,-3.179 1.399,1.273 2.163,2.544 2.671,3.431 0.511,1.021 1.018,2.679 1.018,2.679 0,0 0.638,0.508 1.529,0.508 1.019,0 2.416,-0.383 2.416,-0.383 0,0 0.635,-2.288 2.418,-4.584 1.908,-2.412 3.054,-2.795 3.438,1.021 0.379,3.689 0.633,4.963 0.379,5.727 -0.126,0.763 -0.763,3.179 -0.763,4.327 0,1.271 0.511,2.924 0.637,4.072 0.126,1.271 0.126,4.073 -1.654,8.525 -1.655,4.579 -2.036,6.104 -2.418,6.871 -0.383,0.763 -0.891,1.779 -0.891,1.779 0,0 0.635,2.8 0,4.197 -0.511,1.528 -1.778,3.058 -3.944,5.474 -0.678,0.758 -1.309,1.364 -1.871,1.971 6.38,-0.206 15.584,-0.606 18.177,-1.253 0,0 5.979,-0.391 12.524,0.976 0,0 6.855,-1.688 8.489,0.451 0,0 1.633,2.146 1.839,4.182 0,0 5.508,0.718 8.159,-0.205 0,0 1.738,-1.019 1.838,0.407 0,0 1.124,5.105 0,5.312 0,0 -3.165,4.075 -5.306,4.793 0,0 -6.224,4.796 -13.365,5.715 0,0 -12.649,8.566 -16.527,9.284 0,0 -0.095,0.372 -0.225,0.979 2.402,0.306 4.684,0.72 5.88,1.271 0,0 9.979,1.251 12.221,0.999 0,0 3.993,1.997 7.237,-2.494 0,0 -1.749,-8.479 4.485,-0.75 0,0 2.748,-4.237 7.985,-0.495 0,0 5.488,3.241 7.734,5.486 0,0 4.239,1.994 6.236,3.239 0,0 3.738,0.753 4.237,4.99 0,0 0,1.498 -2.99,2.997 0,0 0.497,2.49 -3.494,3.24 0,0 -11.228,1.749 -15.714,0.499 0,0 -9.139,2.996 -16.024,9.928 5.819,4.592 12.081,8.64 18.72,12.071 0.267,-0.478 0.523,-0.947 0.812,-1.439 3.807,-6.526 7.752,-7.072 10.743,-8.026 2.993,-0.948 7.614,-1.494 9.658,-2.31 0,0 1.355,-0.812 2.174,-1.084 0.815,-0.409 1.496,-1.224 1.768,-2.725 0.133,-1.633 -0.271,-2.586 -0.817,-5.441 -0.544,-2.987 -1.092,-4.482 -0.95,-6.112 0.271,-1.634 1.768,-0.818 3.124,0.406 1.496,1.224 3.13,3.811 3.13,3.811 0,0 1.632,-0.413 3.266,-0.549 l 2.988,0 c 0,0 1.495,-1.494 3.398,-3.534 1.905,-2.177 1.632,-0.952 1.36,1.634 -0.409,2.449 -1.089,3.803 -1.089,3.803 0,0 0.137,4.63 -0.543,6.531 -0.815,2.038 -2.311,3.94 -3.262,4.896 -0.814,0.952 -1.087,3.804 -1.225,7.749 -0.137,4.076 -1.905,7.348 -2.581,9.11 -0.449,1.165 -0.366,2.403 -0.18,4.23 6.993,1.32 14.198,2.04 21.573,2.052 -0.993,-2.834 -1.356,-6.414 1.834,-8.498 -0.307,-0.757 -0.7,-1.626 -1.199,-2.559 l -0.055,0 c -0.376,0.122 -1.49,0.649 -2.032,2.602 -0.263,0.94 -1.236,1.493 -2.184,1.231 -0.942,-0.261 -1.493,-1.235 -1.231,-2.182 0.717,-2.579 2.229,-3.994 3.535,-4.679 -0.63,-0.753 -1.491,-1.641 -2.536,-2.316 0,0 -6.481,2.413 -6.564,-2.23 0,0 -0.132,-5.121 3.774,-7.599 0.487,-0.31 1.143,-0.596 1.901,-0.794 0.185,-1.245 0.908,-3.7 3.787,-4.575 0,0 1.413,1.868 0.862,4.745 1.657,0.621 3.242,1.955 4.317,4.441 0,0 3.047,1.223 5.052,2.207 2.781,1.367 6.323,4.587 7.438,7.097 1.748,3.905 1.817,8.425 -0.133,11.94 0.3,-0.043 0.604,-0.069 0.902,-0.113 0.252,-0.277 0.393,-0.479 0.393,-0.479 1.902,-2.716 1.795,-8.209 0.133,-11.686 -1.98,-4.136 -5.688,-6.559 -6.797,-10.11 -1.312,-4.205 -0.647,-7.735 1.773,-10.341 2.561,-2.758 6.386,-3.24 9.354,-2.795 5.08,0.775 8.796,4.076 8.796,4.076 -8.535,6.825 5.426,11.621 0.06,26.881 -0.22,0.622 -0.481,1.199 -0.763,1.754 4.149,-1.109 8.198,-2.455 12.152,-3.996 -1.657,-1.467 -2.994,-3.096 -3.298,-4.704 0,0 -4.058,-10.813 -1.207,-15.438 0,0 2.487,-7.188 3.411,-8.111 0,0 -2.773,0.354 -1.989,-2.423 0,0 0.213,-0.287 0.923,-0.426 0,0 1.284,-0.709 -0.144,-0.854 0,0 -2.274,-0.781 -2.485,-0.428 0,0 0.284,-1.062 2.136,-1.062 0,0 -0.073,-2.137 1.421,-2.281 0,0 1.285,-2.888 1.709,-1.122 0,0 1.419,-3.003 1.994,-1.155 0,0 2.132,-1.848 1.988,0 0,0 2.778,-0.995 1.563,0.995 0,0 1.64,0.36 0.354,1.782 l -3.201,0.354 c 0,0 4.77,0.287 2.777,2.137 0,0 5.549,0.571 6.332,9.319 0,0 1.214,6.622 1.921,7.476 0,0 5.193,4.271 9.463,2.916 0,0 -3.059,-11.173 8.968,-16.653 0,0 7.381,-5.978 14.056,-3.7 0.12,-0.144 0.248,-0.282 0.369,-0.426 -0.978,-1.526 -2.251,-3.688 -3.185,-5.909 -1.578,-4.215 -2.236,-7.108 -2.236,-7.108 0,0 -1.318,-1.711 -1.712,-3.161 -0.396,-1.447 -0.793,-4.478 -0.793,-4.478 0,0 -2.499,1.315 -3.288,1.71 -0.924,0.267 -1.847,0.136 -2.766,0.136 -0.922,0 -0.265,-2.77 -0.265,-2.77 0,0 -1.973,-0.656 -3.292,-1.841 -1.186,-1.05 -0.522,-1.316 0.659,-2.373 1.183,-0.919 2.501,-1.312 3.688,-2.366 1.183,-1.054 0.922,-1.714 1.052,-2.505 0.131,-0.787 0.659,-0.918 1.314,-1.709 0.664,-0.923 1.715,-2.239 1.848,-2.896 0.13,-0.79 0,-3.028 -0.133,-4.346 0,-1.314 0.793,-2.238 0.793,-2.238 0,0 0.39,1.316 0.919,2.898 0.525,1.579 2.235,2.895 2.235,2.895 0,0 0.528,-1.446 1.186,-3.024 0.791,-1.583 1.845,-2.239 1.845,-2.239 0,0 0.793,0.788 1.714,2.896 0.92,1.972 0.523,6.451 0.523,6.451 0,0 0.922,1.71 2.504,4.08 1.712,2.369 4.871,5.399 8.688,7.109 0.695,0.288 1.474,0.49 2.288,0.661 1.343,-2.521 2.587,-5.102 3.745,-7.728 -6.48,-4.581 -14.58,-12.437 -12.472,-22.134 0,0 1.395,-8.22 5.059,-12.005 0,0 4.296,-10.237 0.506,-16.049 0,0 -1.771,-3.544 -1.646,-4.679 0,0 -4.17,-1.136 -5.186,-1.512 0,0 -5.685,2.401 -3.659,-0.76 0,0 3.021,-3.273 3.031,-3.288 0.816,-0.88 0.919,-2.296 2.005,-3.175 2.54,-2.058 6.79,-1.132 8.907,1.032 1.795,1.834 3.205,4.764 4.176,7.091 0.862,2.086 1.722,4.669 1.844,6.936 0,0 0.633,11.369 0.13,14.147 0,0 0.253,7.646 5.253,8.581 1.271,-6.897 1.968,-13.996 1.968,-21.26 0,-64.461 -52.254,-116.715 -116.713,-116.715 -64.461,0 -116.715,52.254 -116.715,116.715 0,2.271 0.082,4.521 0.21,6.762 1.062,-0.19 1.648,-0.335 2.059,-0.437 z"
       id="path3456"
       inkscape:connector-curvature="0"
       style="fill:#2bb673" /><path
       d="m 394.859,494.42 c 0,0 0.351,0.004 0.917,0.03 0.055,-0.062 0.108,-0.126 0.163,-0.189 -0.338,0.046 -0.677,0.092 -1.08,0.159 z"
       id="path3458"
       inkscape:connector-curvature="0"
       style="fill:#2bb673" /></g><g
     id="g3460"
     transform="translate(-147.409,-257.72)"><path
       d="m 178.718,393.289 c -0.337,1.911 -1.496,3.812 -4.049,4.276 l 2.738,1.078 -0.431,2.441 -29.567,-5.219 0.647,-3.686 11.456,2.022 c -1.575,-1.194 -2.562,-3.108 -2.173,-5.327 0.549,-3.108 3.405,-4.251 6.87,-3.641 l 9.365,1.653 c 3.733,0.662 5.708,3.208 5.144,6.403 z m -14.308,-4.263 c -2.53,-0.446 -3.812,0.333 -4.137,2.152 -0.327,1.864 0.75,3.292 2.88,3.667 l 8.434,1.489 c 2.266,0.399 3.671,-0.817 3.945,-2.37 0.322,-1.821 -0.601,-3.084 -3.133,-3.529 l -7.989,-1.409 z"
       id="path3462"
       inkscape:connector-curvature="0"
       style="fill:#2bb673" /><path
       d="m 182.226,379.097 c -1.183,3.88 -4.463,5.52 -8.602,4.261 l -7.416,-2.259 c -4.097,-1.247 -6.035,-4.476 -4.851,-8.357 1.18,-3.879 4.497,-5.179 8.593,-3.931 l 3.88,1.182 -2.665,8.751 4.097,1.248 c 1.854,0.565 3.352,-0.017 3.916,-1.871 0.549,-1.812 -0.369,-3.126 -2.223,-3.691 l -1.379,-0.42 0.972,-3.19 0.904,0.276 c 4.097,1.245 5.953,4.119 4.774,8.001 z m -13.851,-7.282 c -1.812,-0.55 -3.35,0.019 -3.902,1.83 -0.564,1.853 0.397,3.184 2.21,3.734 l 2.413,0.734 1.695,-5.562 -2.416,-0.736 z"
       id="path3464"
       inkscape:connector-curvature="0"
       style="fill:#2bb673" /><path
       d="m 172.661,361.072 13.634,5.718 -1.464,3.492 -19.454,-8.159 1.22,-2.91 3.571,1.154 c -2.782,-2.339 -2.88,-4.433 -1.358,-6.776 l 3.532,1.481 c -2.01,3.507 -1.469,5.248 0.319,6 z"
       id="path3466"
       inkscape:connector-curvature="0"
       style="fill:#2bb673" /><path
       d="m 194.026,351.197 -10.092,-0.995 2.199,3.874 4.866,2.659 -1.817,3.323 -26.35,-14.401 1.817,-3.322 17.051,9.318 -6.446,-10.202 1.818,-3.323 5.415,8.613 13.421,1.015 -1.882,3.441 z"
       id="path3468"
       inkscape:connector-curvature="0"
       style="fill:#2bb673" /><path
       d="m 200.837,341.48 c -2.354,3.305 -5.983,3.817 -9.507,1.309 l -6.314,-4.496 c -3.487,-2.483 -4.302,-6.161 -1.946,-9.462 2.351,-3.307 5.907,-3.484 9.396,-1.001 l 3.304,2.354 -5.306,7.452 3.486,2.482 c 1.58,1.126 3.183,1.048 4.307,-0.532 1.098,-1.541 0.643,-3.078 -0.933,-4.203 l -1.176,-0.836 1.934,-2.719 0.772,0.55 c 3.486,2.483 4.334,5.799 1.983,9.102 z m -10.819,-11.3 c -1.543,-1.098 -3.183,-1.048 -4.279,0.494 -1.123,1.579 -0.635,3.145 0.908,4.244 l 2.057,1.463 3.369,-4.735 -2.055,-1.466 z"
       id="path3470"
       inkscape:connector-curvature="0"
       style="fill:#2bb673" /><path
       d="m 206.163,333.947 -22.862,-19.458 2.453,-2.883 22.863,19.456 -2.454,2.885 z"
       id="path3472"
       inkscape:connector-curvature="0"
       style="fill:#2bb673" /><path
       d="m 215.686,324.113 c -2.886,2.851 -6.548,2.734 -9.589,-0.343 l -5.45,-5.514 c -3.009,-3.045 -3.179,-6.806 -0.293,-9.655 2.884,-2.853 6.418,-2.417 9.428,0.627 l 2.851,2.885 -6.506,6.43 3.011,3.046 c 1.36,1.38 2.953,1.578 4.333,0.218 1.345,-1.332 1.164,-2.926 -0.199,-4.305 l -1.014,-1.024 2.371,-2.346 0.666,0.674 c 3.008,3.046 3.276,6.456 0.391,9.307 z m -8.719,-12.987 c -1.331,-1.346 -2.954,-1.58 -4.302,-0.25 -1.377,1.363 -1.165,2.989 0.167,4.335 l 1.772,1.795 4.136,-4.085 -1.773,-1.795 z"
       id="path3474"
       inkscape:connector-curvature="0"
       style="fill:#2bb673" /><path
       d="m 228.343,314.448 c 1.57,3.527 2.248,5.918 -0.797,8.317 l -1.098,0.863 -1.87,-2.374 0.852,-0.668 c 1.452,-1.144 1.381,-1.89 0.826,-3.176 l -0.831,-1.64 -17.83,-13.613 2.974,-2.345 9.205,7.611 3.635,3.162 -2.183,-4.305 -5.235,-10.734 2.938,-2.314 9.414,21.216 z"
       id="path3476"
       inkscape:connector-curvature="0"
       style="fill:#2bb673" /><path
       d="m 244.976,302.406 c -3.56,1.944 -7.05,0.822 -9.124,-2.977 l -3.719,-6.804 c -2.052,-3.756 -1.177,-7.419 2.383,-9.363 3.599,-1.968 6.771,-0.671 8.826,3.088 l 0.432,0.791 -2.927,1.598 -0.714,-1.306 c -0.864,-1.583 -2.361,-2.253 -4.021,-1.345 -1.661,0.907 -1.986,2.473 -0.973,4.331 l 4.172,7.636 c 1.015,1.856 2.487,2.388 4.148,1.48 1.662,-0.907 1.947,-2.45 1.042,-4.112 l -0.693,-1.267 2.926,-1.6 0.432,0.792 c 2.054,3.759 1.409,7.091 -2.19,9.058 z"
       id="path3478"
       inkscape:connector-curvature="0"
       style="fill:#2bb673" /><path
       d="m 258.71,295.964 c -3.767,1.508 -7.144,-0.009 -8.753,-4.028 l -2.88,-7.2 c -1.592,-3.976 -0.245,-7.527 3.523,-9.034 3.768,-1.509 7.15,0.148 8.742,4.125 l 2.881,7.201 c 1.61,4.019 0.254,7.426 -3.513,8.936 z m -3.067,-15.432 c -0.671,-1.675 -2.076,-2.521 -3.835,-1.816 -1.759,0.705 -2.194,2.286 -1.522,3.961 l 3.382,8.456 c 0.704,1.759 2.078,2.52 3.837,1.816 1.756,-0.705 2.227,-2.203 1.523,-3.961 l -3.385,-8.456 z"
       id="path3480"
       inkscape:connector-curvature="0"
       style="fill:#2bb673" /><path
       d="m 279.647,289.404 c -1.438,0.383 -2.831,0.052 -3.375,-1.809 -0.758,1.883 -2.288,3.314 -4.292,3.849 -3.094,0.822 -5.587,-0.659 -6.457,-3.927 l -0.127,-0.48 c -1.228,-4.615 2.92,-7.26 7.34,-9.229 l -0.752,-2.831 c -0.417,-1.568 -1.457,-2.318 -3.155,-1.866 -2.004,0.533 -2.252,1.531 -1.766,3.361 l 0.279,1.046 -3.441,0.916 -0.313,-1.178 c -0.845,-3.179 0.345,-6.248 4.396,-7.324 4.398,-1.172 6.697,1.155 7.671,4.815 l 2.874,10.804 c 0.196,0.739 0.649,1.039 1.478,0.818 l 0.729,2.743 -1.089,0.292 z m -6.225,-9.024 c -3.75,1.51 -5.232,3.304 -4.631,5.566 l 0.141,0.525 c 0.349,1.307 1.376,2.198 2.901,1.792 1.743,-0.463 3.105,-2.179 2.619,-4.007 l -1.03,-3.876 z"
       id="path3482"
       inkscape:connector-curvature="0"
       style="fill:#2bb673" /><path
       d="m 283.294,288.438 -5.095,-29.587 3.729,-0.646 5.094,29.587 -3.728,0.646 z"
       id="path3484"
       inkscape:connector-curvature="0"
       style="fill:#2bb673" /><path
       d="m 288.226,262.919 -0.449,-3.986 3.493,-0.395 0.451,3.984 -3.495,0.397 z m 2.616,24.333 -2.37,-20.96 3.761,-0.426 2.37,20.959 -3.761,0.427 z"
       id="path3486"
       inkscape:connector-curvature="0"
       style="fill:#2bb673" /><path
       d="m 302.461,268.389 0.507,11.302 c 0.116,2.656 0.478,4.671 1.462,6.521 l -3.917,0.176 c -0.842,-1.677 -1.194,-3.511 -1.33,-6.527 l -0.504,-11.303 -2.433,0.107 -0.142,-3.196 2.655,-0.119 -0.168,-3.737 3.503,-1.419 0.224,4.998 2.928,-0.131 0.143,3.196 -2.928,0.132 z"
       id="path3488"
       inkscape:connector-curvature="0"
       style="fill:#2bb673" /><path
       d="m 309.378,261.729 0.092,-4.009 3.514,0.079 -0.09,4.01 -3.516,-0.08 z m -0.695,24.466 0.484,-21.088 3.782,0.086 -0.479,21.088 -3.787,-0.086 z"
       id="path3490"
       inkscape:connector-curvature="0"
       style="fill:#2bb673" /><path
       d="m 322.295,287.387 c -4.029,-0.451 -6.286,-3.382 -5.804,-7.682 l 0.864,-7.703 c 0.478,-4.256 3.343,-6.746 7.374,-6.294 4.028,0.453 6.227,3.511 5.751,7.767 l -0.866,7.705 c -0.482,4.299 -3.287,6.66 -7.319,6.207 z m 4.591,-15.041 c 0.203,-1.793 -0.638,-3.202 -2.519,-3.411 -1.884,-0.214 -3.012,0.976 -3.216,2.768 l -1.014,9.048 c -0.21,1.882 0.64,3.2 2.521,3.411 1.882,0.211 3.002,-0.887 3.215,-2.768 l 1.013,-9.048 z"
       id="path3492"
       inkscape:connector-curvature="0"
       style="fill:#2bb673" /><path
       d="m 341.312,290.56 3.61,-14.986 c 0.424,-1.752 -0.28,-3.081 -1.769,-3.439 -2.147,-0.519 -4.016,2.232 -4.354,3.634 l -3.229,13.409 -3.682,-0.887 4.94,-20.509 3.066,0.74 -0.721,4.138 c 1.849,-2.847 3.772,-3.729 5.877,-3.221 3.287,0.793 4.445,3.483 3.622,6.9 l -3.642,15.117 -3.718,-0.896 z"
       id="path3494"
       inkscape:connector-curvature="0"
       style="fill:#2bb673" /><path
       d="m 366.292,280.319 -6.844,16.528 -3.496,-1.448 6.841,-16.528 -2.249,-0.93 1.224,-2.956 2.248,0.93 0.761,-1.833 c 1.635,-3.954 4.357,-5.706 7.814,-4.273 l 1.374,0.567 -1.225,2.957 -0.916,-0.381 c -1.663,-0.688 -2.721,0.094 -3.428,1.801 l -1.05,2.541 2.874,1.188 -1.224,2.958 -2.704,-1.121 z"
       id="path3496"
       inkscape:connector-curvature="0"
       style="fill:#2bb673" /><path
       d="m 369.312,302.016 c -3.574,-1.915 -4.586,-5.472 -2.541,-9.286 l 3.661,-6.832 c 2.021,-3.772 5.604,-5.021 9.181,-3.106 3.572,1.915 4.48,5.57 2.456,9.344 l -3.659,6.832 c -2.042,3.812 -5.523,4.963 -9.098,3.048 z m 9.843,-12.261 c 0.852,-1.588 0.595,-3.211 -1.073,-4.104 -1.669,-0.895 -3.16,-0.21 -4.011,1.378 l -4.302,8.025 c -0.892,1.667 -0.595,3.209 1.074,4.102 1.669,0.893 3.118,0.289 4.011,-1.378 l 4.301,-8.023 z"
       id="path3498"
       inkscape:connector-curvature="0"
       style="fill:#2bb673" /><path
       d="m 389.361,296.454 -8.29,12.246 -3.139,-2.123 11.834,-17.472 2.611,1.77 -1.837,3.275 c 2.842,-2.268 4.917,-1.954 6.916,0.001 l -2.148,3.172 c -3.042,-2.66 -4.858,-2.473 -5.947,-0.869 z"
       id="path3500"
       inkscape:connector-curvature="0"
       style="fill:#2bb673" /><path
       d="m 401.377,325.948 c -1.09,-1.017 -1.551,-2.369 -0.265,-3.818 -1.995,0.357 -4.022,-0.177 -5.543,-1.59 -2.342,-2.182 -2.41,-5.08 -0.104,-7.554 l 0.337,-0.364 c 3.257,-3.495 7.7,-1.388 11.718,1.308 l 1.995,-2.144 c 1.107,-1.188 1.19,-2.466 -0.096,-3.664 -1.516,-1.413 -2.494,-1.092 -3.785,0.294 l -0.735,0.791 -2.607,-2.427 0.832,-0.891 c 2.242,-2.407 5.474,-3.032 8.539,-0.175 3.329,3.101 2.583,6.286 0.002,9.057 l -7.617,8.178 c -0.523,0.561 -0.535,1.104 0.091,1.688 l -1.938,2.078 -0.824,-0.767 z m 4.33,-10.073 c -3.273,-2.371 -5.579,-2.672 -7.178,-0.957 l -0.369,0.396 c -0.922,0.989 -1.129,2.335 0.024,3.411 1.318,1.229 3.496,1.469 4.788,0.085 l 2.735,-2.935 z"
       id="path3502"
       inkscape:connector-curvature="0"
       style="fill:#2bb673" /><path
       d="m 410.265,335.606 11.818,-9.901 c 1.382,-1.157 1.609,-2.641 0.625,-3.818 -1.417,-1.691 -4.558,-0.593 -5.661,0.334 l -10.573,8.859 -2.433,-2.904 16.172,-13.548 2.027,2.418 -3.041,2.9 c 3.177,-1.191 5.249,-0.754 6.639,0.905 2.173,2.593 1.505,5.445 -1.189,7.704 l -11.925,9.986 -2.459,-2.935 z"
       id="path3504"
       inkscape:connector-curvature="0"
       style="fill:#2bb673" /><path
       d="m 414.698,341.512 17.36,-11.982 2.151,3.117 -17.361,11.98 -2.15,-3.115 z m 20.221,-13.791 3.303,-2.276 1.994,2.892 -3.301,2.278 -1.996,-2.894 z"
       id="path3506"
       inkscape:connector-curvature="0"
       style="fill:#2bb673" /><path
       d="m 426.936,362.281 13.92,-7.323 c 1.395,-0.734 1.959,-1.796 1.349,-2.952 -0.985,-1.873 -3.987,-0.904 -5.266,-0.233 l -12.163,6.4 -1.785,-3.39 13.962,-7.345 c 1.395,-0.735 1.998,-1.714 1.391,-2.87 -1.007,-1.915 -4.03,-0.985 -5.31,-0.315 l -12.203,6.421 -1.762,-3.351 18.662,-9.82 1.49,2.834 -3.085,1.877 c 3.059,-0.385 4.729,0.569 5.673,2.362 0.944,1.795 0.354,3.479 -1.207,4.964 2.638,-0.216 4.147,0.619 5.09,2.416 1.236,2.352 0.136,4.612 -2.855,6.187 l -14.159,7.447 -1.742,-3.309 z"
       id="path3508"
       inkscape:connector-curvature="0"
       style="fill:#2bb673" /><path
       d="m 433.325,380.35 c -0.484,-1.404 -0.262,-2.821 1.554,-3.497 -1.929,-0.618 -3.475,-2.04 -4.153,-3.999 -1.047,-3.021 0.247,-5.616 3.441,-6.725 l 0.467,-0.164 c 4.514,-1.565 7.456,2.376 9.746,6.638 l 2.768,-0.959 c 1.533,-0.531 2.201,-1.625 1.627,-3.285 -0.68,-1.958 -1.694,-2.132 -3.483,-1.511 l -1.019,0.355 -1.171,-3.364 1.151,-0.399 c 3.107,-1.079 6.254,-0.118 7.63,3.841 1.49,4.3 -0.657,6.765 -4.234,8.006 l -10.56,3.663 c -0.726,0.252 -0.989,0.725 -0.71,1.533 l -2.683,0.931 -0.371,-1.064 z m 8.542,-6.875 c -1.782,-3.627 -3.682,-4.973 -5.896,-4.204 l -0.512,0.178 c -1.277,0.443 -2.091,1.536 -1.574,3.026 0.589,1.703 2.401,2.936 4.19,2.315 l 3.792,-1.315 z"
       id="path3510"
       inkscape:connector-curvature="0"
       style="fill:#2bb673" /><path
       d="m 434.545,383.853 29.129,-7.267 0.917,3.674 -29.128,7.268 -0.918,-3.675 z"
       id="path3512"
       inkscape:connector-curvature="0"
       style="fill:#2bb673" /><path
       d="m 436.909,396.804 c -0.673,-4.18 1.466,-6.764 5.067,-7.346 l 1.024,-0.166 0.502,3.115 -0.935,0.15 c -2.27,0.365 -2.951,1.801 -2.642,3.713 0.302,1.868 1.35,2.704 2.952,2.445 1.688,-0.273 2.567,-1.055 3.548,-4.316 0.877,-3.611 2.494,-5.744 5.389,-6.212 3.159,-0.509 6.036,1.49 6.626,5.139 0.67,4.139 -1.166,6.353 -4.771,6.933 l -0.8,0.129 -0.49,-3.024 0.893,-0.144 c 1.558,-0.252 2.297,-1.33 1.972,-3.332 -0.272,-1.689 -1.276,-2.534 -2.566,-2.325 -1.601,0.26 -2.347,1.292 -3.334,4.786 -0.923,3.616 -2.711,5.274 -5.646,5.749 -3.068,0.497 -6.149,-1.333 -6.789,-5.294 z"
       id="path3514"
       inkscape:connector-curvature="0"
       style="fill:#2bb673" /></g><g
     id="g3516"
     transform="translate(-147.409,-257.72)"><path
       d="m 267.445,440.997 -19.848,0 0,-66.762 19.347,0 c 10.827,0 15.438,5.416 15.438,14.94 l 0,5.416 c 0,6.913 -2.808,10.819 -8.522,12.021 6.516,1.306 9.225,5.818 9.225,12.329 l 0,7.121 c -10e-4,9.52 -4.813,14.935 -15.64,14.935 z m 5.615,-52.027 c 0,-3.809 -1.504,-6.517 -6.016,-6.517 l -9.922,0 0,21.051 8.821,0 c 4.711,0 7.118,-2.604 7.118,-7.515 l -10e-4,-7.019 0,0 z m 0.501,29.572 c 0,-4.912 -2.506,-7.519 -7.118,-7.519 l -9.322,0 0,21.749 10.324,0 c 4.511,0 6.116,-2.705 6.116,-6.414 l 0,-7.816 z"
       id="path3518"
       inkscape:connector-curvature="0"
       style="fill:#ffffff" /><path
       d="m 310.054,442.5 c -12.632,0 -18.646,-8.722 -18.646,-18.545 l 0,-32.675 c 0,-9.825 6.013,-18.445 18.646,-18.445 12.627,0 18.14,7.816 18.14,17.541 l 0,7.217 -8.52,0 0,-7.02 c 0,-5.61 -3.106,-9.322 -9.319,-9.322 -6.313,0 -9.426,3.812 -9.426,8.924 l 0,34.882 c 0,5.111 3.112,8.925 9.426,8.925 6.214,0 9.319,-3.609 9.319,-9.326 l 0,-7.014 8.52,0 0,7.217 c -0.001,9.721 -5.512,17.641 -18.14,17.641 z"
       id="path3520"
       inkscape:connector-curvature="0"
       style="fill:#ffffff" /><path
       d="m 362.781,440.997 -3.509,-16.342 -14.437,0 -3.505,16.342 -9.226,0 15.138,-66.762 10.025,0 15.136,66.762 -9.622,0 z m -10.726,-51.822 -5.512,27.362 11.026,0 -5.514,-27.362 z"
       id="path3522"
       inkscape:connector-curvature="0"
       style="fill:#ffffff" /></g></svg>