<?xml version="1.0" encoding="utf-8"?>
<!-- Generator: Adobe Illustrator 16.0.0, SVG Export Plug-In . SVG Version: 6.00 Build 0)  -->
<!DOCTYPE svg PUBLIC "-//W3C//DTD SVG 1.1//EN" "http://www.w3.org/Graphics/SVG/1.1/DTD/svg11.dtd">
<svg version="1.1"
	 id="Layer_1" sodipodi:docname="17-02-27_BCA_Logo_04.svg" inkscape:version="0.91 r13725" xmlns:dc="http://purl.org/dc/elements/1.1/" xmlns:cc="http://creativecommons.org/ns#" xmlns:rdf="http://www.w3.org/1999/02/22-rdf-syntax-ns#" xmlns:svg="http://www.w3.org/2000/svg" xmlns:sodipodi="http://sodipodi.sourceforge.net/DTD/sodipodi-0.dtd" xmlns:inkscape="http://www.inkscape.org/namespaces/inkscape"
	 xmlns="http://www.w3.org/2000/svg" xmlns:xlink="http://www.w3.org/1999/xlink" x="0px" y="0px" width="317.182px"
	 height="276.561px" viewBox="0 0 317.182 276.561" enable-background="new 0 0 317.182 276.561" xml:space="preserve">
<sodipodi:namedview  inkscape:current-layer="Layer_1" inkscape:window-maximized="0" inkscape:window-y="0" inkscape:window-x="0" fit-margin-bottom="0" fit-margin-right="0" inkscape:window-height="742" inkscape:window-width="1138" inkscape:pageshadow="2" inkscape:pageopacity="0" inkscape:cy="138.28" inkscape:cx="-173.13675" inkscape:zoom="0.72348485" fit-margin-left="0" fit-margin-top="0" showgrid="false" guidetolerance="10" gridtolerance="10" objecttolerance="10" borderopacity="1" pagecolor="#ffffff" bordercolor="#666666" id="namedview3524">
	</sodipodi:namedview>
<g id="Layer_1_1_" transform="translate(-147.409,-257.72)">
</g>
<g id="g3454" transform="translate(-147.409,-257.72)">
	<path id="path3456" inkscape:connector-curvature="0" fill="#082765" d="M193.551,423.893c1.018-0.387,1.782-1.021,1.782-1.021
		s0.128-2.288,0.765-3.562c0.763-1.399,1.395-3.31,1.395-3.31s-0.376-6.744-0.125-8.78c0.125-2.16,0.512-4.456,2.037-3.179
		c1.399,1.273,2.163,2.544,2.671,3.431c0.511,1.021,1.018,2.68,1.018,2.68s0.638,0.508,1.529,0.508c1.019,0,2.416-0.383,2.416-0.383
		s0.635-2.288,2.418-4.584c1.908-2.412,3.054-2.796,3.438,1.021c0.379,3.689,0.633,4.963,0.379,5.727
		c-0.126,0.764-0.763,3.18-0.763,4.327c0,1.271,0.511,2.925,0.637,4.072c0.126,1.271,0.126,4.073-1.654,8.525
		c-1.655,4.579-2.036,6.104-2.418,6.871c-0.383,0.763-0.891,1.778-0.891,1.778s0.635,2.8,0,4.197
		c-0.511,1.528-1.778,3.058-3.944,5.474c-0.678,0.759-1.309,1.364-1.871,1.972c6.38-0.206,15.584-0.606,18.177-1.253
		c0,0,5.979-0.392,12.524,0.976c0,0,6.855-1.688,8.489,0.451c0,0,1.633,2.146,1.839,4.182c0,0,5.508,0.718,8.159-0.205
		c0,0,1.738-1.019,1.838,0.407c0,0,1.124,5.105,0,5.312c0,0-3.165,4.074-5.306,4.793c0,0-6.224,4.796-13.365,5.715
		c0,0-12.649,8.565-16.527,9.284c0,0-0.095,0.372-0.225,0.979c2.402,0.306,4.684,0.72,5.88,1.271c0,0,9.979,1.251,12.221,0.999
		c0,0,3.993,1.996,7.237-2.494c0,0-1.749-8.479,4.485-0.75c0,0,2.748-4.237,7.985-0.495c0,0,5.488,3.241,7.734,5.485
		c0,0,4.239,1.994,6.236,3.239c0,0,3.738,0.753,4.237,4.99c0,0,0,1.498-2.99,2.997c0,0,0.497,2.49-3.494,3.24
		c0,0-11.228,1.749-15.714,0.499c0,0-9.139,2.996-16.024,9.928c5.819,4.592,12.081,8.64,18.72,12.071
		c0.267-0.479,0.523-0.947,0.812-1.439c3.807-6.526,7.752-7.072,10.743-8.026c2.993-0.947,7.614-1.493,9.658-2.31
		c0,0,1.355-0.812,2.174-1.084c0.815-0.409,1.496-1.224,1.768-2.725c0.133-1.634-0.271-2.586-0.817-5.441
		c-0.544-2.987-1.092-4.482-0.95-6.112c0.271-1.634,1.768-0.817,3.124,0.406c1.496,1.224,3.13,3.812,3.13,3.812
		s1.632-0.413,3.266-0.55h2.988c0,0,1.495-1.494,3.398-3.533c1.905-2.178,1.632-0.952,1.36,1.634
		c-0.409,2.449-1.089,3.803-1.089,3.803s0.137,4.63-0.543,6.531c-0.815,2.038-2.311,3.939-3.262,4.896
		c-0.814,0.952-1.087,3.805-1.225,7.749c-0.137,4.076-1.905,7.349-2.581,9.11c-0.449,1.165-0.366,2.403-0.18,4.229
		c6.993,1.32,14.198,2.04,21.573,2.053c-0.993-2.834-1.356-6.414,1.834-8.498c-0.307-0.757-0.7-1.626-1.198-2.56h-0.056
		c-0.376,0.122-1.489,0.649-2.032,2.603c-0.263,0.939-1.236,1.493-2.184,1.23c-0.942-0.261-1.493-1.234-1.231-2.182
		c0.717-2.579,2.229-3.994,3.535-4.679c-0.63-0.753-1.491-1.642-2.536-2.316c0,0-6.481,2.413-6.564-2.229c0,0-0.132-5.121,3.774-7.6
		c0.487-0.31,1.143-0.596,1.901-0.794c0.185-1.245,0.908-3.7,3.787-4.575c0,0,1.413,1.868,0.861,4.745
		c1.658,0.621,3.242,1.955,4.317,4.441c0,0,3.048,1.223,5.052,2.207c2.781,1.367,6.323,4.587,7.438,7.097
		c1.748,3.905,1.817,8.425-0.133,11.94c0.3-0.043,0.604-0.069,0.901-0.113c0.252-0.277,0.394-0.479,0.394-0.479
		c1.901-2.716,1.795-8.209,0.133-11.686c-1.979-4.136-5.688-6.559-6.797-10.11c-1.312-4.205-0.647-7.734,1.772-10.341
		c2.562-2.758,6.387-3.24,9.354-2.795c5.08,0.775,8.796,4.076,8.796,4.076c-8.535,6.825,5.426,11.621,0.061,26.881
		c-0.221,0.622-0.481,1.199-0.764,1.754c4.149-1.108,8.198-2.455,12.152-3.996c-1.657-1.467-2.994-3.096-3.299-4.704
		c0,0-4.057-10.812-1.207-15.438c0,0,2.488-7.188,3.412-8.111c0,0-2.773,0.354-1.989-2.423c0,0,0.213-0.287,0.923-0.426
		c0,0,1.284-0.709-0.145-0.854c0,0-2.273-0.78-2.484-0.428c0,0,0.283-1.062,2.136-1.062c0,0-0.073-2.138,1.421-2.281
		c0,0,1.285-2.888,1.709-1.122c0,0,1.42-3.003,1.994-1.155c0,0,2.133-1.848,1.988,0c0,0,2.777-0.995,1.562,0.995
		c0,0,1.641,0.36,0.354,1.782l-3.201,0.354c0,0,4.771,0.287,2.776,2.138c0,0,5.55,0.57,6.332,9.318c0,0,1.215,6.622,1.922,7.477
		c0,0,5.193,4.271,9.463,2.916c0,0-3.059-11.173,8.968-16.653c0,0,7.381-5.978,14.056-3.7c0.121-0.144,0.248-0.282,0.369-0.426
		c-0.978-1.526-2.251-3.688-3.185-5.909c-1.578-4.215-2.236-7.107-2.236-7.107s-1.317-1.711-1.712-3.161
		c-0.396-1.447-0.793-4.479-0.793-4.479s-2.499,1.315-3.288,1.71c-0.924,0.268-1.847,0.137-2.766,0.137
		c-0.923,0-0.265-2.771-0.265-2.771s-1.974-0.656-3.293-1.841c-1.186-1.05-0.521-1.316,0.659-2.373
		c1.183-0.919,2.501-1.312,3.688-2.366c1.183-1.054,0.922-1.714,1.052-2.505c0.131-0.787,0.659-0.918,1.313-1.709
		c0.664-0.923,1.715-2.239,1.849-2.896c0.13-0.789,0-3.027-0.134-4.346c0-1.313,0.793-2.238,0.793-2.238s0.391,1.316,0.92,2.898
		c0.525,1.579,2.234,2.895,2.234,2.895s0.528-1.445,1.187-3.023c0.791-1.583,1.845-2.239,1.845-2.239s0.793,0.788,1.714,2.896
		c0.921,1.972,0.523,6.45,0.523,6.45s0.922,1.711,2.504,4.08c1.712,2.369,4.871,5.399,8.688,7.109
		c0.694,0.288,1.474,0.49,2.287,0.661c1.344-2.521,2.588-5.103,3.745-7.729c-6.479-4.581-14.579-12.437-12.472-22.134
		c0,0,1.395-8.22,5.059-12.005c0,0,4.297-10.237,0.506-16.049c0,0-1.771-3.544-1.646-4.679c0,0-4.17-1.137-5.187-1.513
		c0,0-5.685,2.401-3.658-0.76c0,0,3.021-3.272,3.031-3.288c0.815-0.88,0.918-2.296,2.004-3.175c2.541-2.058,6.791-1.132,8.908,1.032
		c1.795,1.834,3.204,4.764,4.176,7.091c0.861,2.086,1.722,4.669,1.844,6.936c0,0,0.633,11.369,0.13,14.147
		c0,0,0.253,7.646,5.253,8.581c1.271-6.897,1.968-13.996,1.968-21.26c0-64.461-52.254-116.716-116.713-116.716
		c-64.461,0-116.715,52.255-116.715,116.716c0,2.271,0.082,4.521,0.21,6.762C192.554,424.14,193.14,423.995,193.551,423.893
		L193.551,423.893z"/>
	<path id="path3458" inkscape:connector-curvature="0" fill="#082765" d="M394.859,494.42c0,0,0.351,0.004,0.917,0.03
		c0.055-0.062,0.108-0.126,0.163-0.189C395.601,494.307,395.262,494.353,394.859,494.42z"/>
</g>
<g id="g3460" transform="translate(-147.409,-257.72)">
	<path id="path3462" inkscape:connector-curvature="0" fill="#082765" d="M178.718,393.289c-0.337,1.911-1.496,3.812-4.049,4.276
		l2.738,1.077l-0.431,2.441l-29.567-5.219l0.647-3.687l11.456,2.022c-1.575-1.194-2.562-3.108-2.173-5.327
		c0.549-3.108,3.405-4.251,6.87-3.641l9.365,1.652C177.307,387.548,179.282,390.094,178.718,393.289L178.718,393.289z
		 M164.41,389.026c-2.53-0.446-3.812,0.333-4.137,2.151c-0.327,1.864,0.75,3.292,2.88,3.667l8.434,1.489
		c2.266,0.399,3.671-0.817,3.945-2.37c0.322-1.821-0.601-3.084-3.133-3.529L164.41,389.026L164.41,389.026z"/>
	<path id="path3464" inkscape:connector-curvature="0" fill="#082765" d="M182.226,379.097c-1.183,3.88-4.463,5.521-8.602,4.262
		l-7.416-2.26c-4.097-1.247-6.035-4.476-4.851-8.356c1.18-3.879,4.497-5.18,8.593-3.932l3.88,1.183l-2.665,8.751l4.097,1.248
		c1.854,0.564,3.352-0.018,3.916-1.871c0.549-1.812-0.369-3.126-2.223-3.691l-1.379-0.42l0.972-3.189l0.904,0.275
		C181.549,372.341,183.405,375.215,182.226,379.097L182.226,379.097z M168.375,371.814c-1.812-0.55-3.35,0.02-3.902,1.83
		c-0.564,1.854,0.397,3.185,2.21,3.734l2.413,0.734l1.695-5.562L168.375,371.814L168.375,371.814z"/>
	<path id="path3466" inkscape:connector-curvature="0" fill="#082765" d="M172.661,361.072l13.634,5.718l-1.464,3.492l-19.454-8.159
		l1.22-2.91l3.571,1.154c-2.782-2.339-2.88-4.434-1.358-6.776l3.532,1.481C170.332,358.579,170.873,360.32,172.661,361.072
		L172.661,361.072z"/>
	<path id="path3468" inkscape:connector-curvature="0" fill="#082765" d="M194.026,351.197l-10.092-0.995l2.199,3.874l4.866,2.659
		l-1.817,3.322l-26.35-14.4l1.817-3.322l17.051,9.318l-6.446-10.202l1.818-3.323l5.415,8.613l13.421,1.015L194.026,351.197
		L194.026,351.197z"/>
	<path id="path3470" inkscape:connector-curvature="0" fill="#082765" d="M200.837,341.479c-2.354,3.306-5.983,3.817-9.507,1.31
		l-6.314-4.496c-3.487-2.483-4.302-6.161-1.946-9.462c2.351-3.307,5.907-3.484,9.396-1.001l3.304,2.354l-5.306,7.452l3.486,2.482
		c1.58,1.126,3.183,1.048,4.307-0.532c1.098-1.541,0.643-3.078-0.933-4.203l-1.176-0.836l1.934-2.719l0.772,0.55
		C202.34,334.861,203.188,338.177,200.837,341.479L200.837,341.479z M190.018,330.18c-1.543-1.098-3.183-1.048-4.279,0.494
		c-1.123,1.579-0.635,3.146,0.908,4.244l2.057,1.463l3.369-4.735L190.018,330.18L190.018,330.18z"/>
	<path id="path3472" inkscape:connector-curvature="0" fill="#082765" d="M206.163,333.947l-22.862-19.458l2.453-2.884
		l22.863,19.456L206.163,333.947L206.163,333.947z"/>
	<path id="path3474" inkscape:connector-curvature="0" fill="#082765" d="M215.686,324.113c-2.886,2.851-6.548,2.733-9.589-0.344
		l-5.45-5.514c-3.009-3.045-3.179-6.806-0.293-9.655c2.884-2.853,6.418-2.417,9.428,0.627l2.851,2.886l-6.506,6.43l3.011,3.046
		c1.36,1.38,2.953,1.578,4.333,0.218c1.345-1.332,1.164-2.926-0.199-4.305l-1.014-1.024l2.371-2.346l0.666,0.674
		C218.303,317.852,218.571,321.262,215.686,324.113z M206.967,311.126c-1.331-1.346-2.954-1.58-4.302-0.25
		c-1.377,1.363-1.165,2.989,0.167,4.335l1.772,1.795l4.136-4.085L206.967,311.126L206.967,311.126z"/>
	<path id="path3476" inkscape:connector-curvature="0" fill="#082765" d="M228.343,314.448c1.57,3.526,2.248,5.918-0.797,8.316
		l-1.098,0.863l-1.87-2.374l0.852-0.668c1.452-1.144,1.381-1.89,0.826-3.176l-0.831-1.641l-17.83-13.612l2.974-2.346l9.205,7.611
		l3.635,3.162l-2.183-4.305l-5.235-10.734l2.938-2.314L228.343,314.448L228.343,314.448z"/>
	<path id="path3478" inkscape:connector-curvature="0" fill="#082765" d="M244.976,302.406c-3.56,1.943-7.05,0.821-9.124-2.978
		l-3.719-6.804c-2.052-3.756-1.177-7.419,2.383-9.363c3.599-1.968,6.771-0.671,8.826,3.088l0.432,0.791l-2.927,1.599l-0.714-1.307
		c-0.864-1.583-2.361-2.253-4.021-1.345c-1.661,0.907-1.986,2.473-0.973,4.331l4.172,7.636c1.015,1.856,2.487,2.389,4.148,1.48
		c1.662-0.907,1.947-2.45,1.042-4.112l-0.693-1.267l2.926-1.601l0.432,0.792C249.22,297.107,248.575,300.438,244.976,302.406
		L244.976,302.406z"/>
	<path id="path3480" inkscape:connector-curvature="0" fill="#082765" d="M258.71,295.964c-3.767,1.508-7.144-0.009-8.753-4.028
		l-2.88-7.199c-1.592-3.977-0.245-7.527,3.523-9.034c3.768-1.509,7.15,0.147,8.742,4.125l2.881,7.201
		C263.833,291.047,262.477,294.454,258.71,295.964z M255.643,280.532c-0.671-1.675-2.076-2.521-3.835-1.816
		c-1.759,0.705-2.194,2.286-1.522,3.961l3.382,8.456c0.704,1.759,2.078,2.521,3.837,1.816c1.756-0.705,2.227-2.203,1.523-3.961
		L255.643,280.532z"/>
	<path id="path3482" inkscape:connector-curvature="0" fill="#082765" d="M279.647,289.404c-1.438,0.383-2.831,0.052-3.375-1.81
		c-0.758,1.883-2.288,3.314-4.292,3.85c-3.094,0.821-5.587-0.659-6.457-3.928l-0.127-0.479c-1.228-4.615,2.92-7.26,7.34-9.229
		l-0.752-2.831c-0.417-1.567-1.457-2.317-3.155-1.865c-2.004,0.532-2.252,1.53-1.766,3.36l0.279,1.046l-3.441,0.916l-0.313-1.178
		c-0.845-3.179,0.345-6.248,4.396-7.324c4.398-1.172,6.697,1.155,7.671,4.815l2.874,10.804c0.196,0.739,0.649,1.039,1.478,0.818
		l0.729,2.743L279.647,289.404L279.647,289.404z M273.422,280.38c-3.75,1.51-5.232,3.304-4.631,5.566l0.141,0.524
		c0.349,1.308,1.376,2.198,2.901,1.792c1.743-0.463,3.105-2.179,2.619-4.007L273.422,280.38L273.422,280.38z"/>
	<path id="path3484" inkscape:connector-curvature="0" fill="#082765" d="M283.294,288.438l-5.095-29.587l3.729-0.646l5.094,29.587
		L283.294,288.438z"/>
	<path id="path3486" inkscape:connector-curvature="0" fill="#082765" d="M288.226,262.919l-0.449-3.986l3.493-0.395l0.451,3.984
		L288.226,262.919L288.226,262.919z M290.842,287.252l-2.37-20.96l3.761-0.426l2.37,20.959L290.842,287.252z"/>
	<path id="path3488" inkscape:connector-curvature="0" fill="#082765" d="M302.461,268.389l0.507,11.303
		c0.116,2.655,0.478,4.671,1.462,6.521l-3.917,0.176c-0.842-1.677-1.194-3.511-1.33-6.526l-0.504-11.304l-2.433,0.107l-0.142-3.196
		l2.655-0.119l-0.168-3.736l3.503-1.419l0.224,4.998l2.928-0.132l0.143,3.196L302.461,268.389L302.461,268.389z"/>
	<path id="path3490" inkscape:connector-curvature="0" fill="#082765" d="M309.378,261.729l0.093-4.009l3.514,0.079l-0.09,4.01
		L309.378,261.729L309.378,261.729z M308.683,286.195l0.483-21.088l3.782,0.086l-0.479,21.088L308.683,286.195L308.683,286.195z"/>
	<path id="path3492" inkscape:connector-curvature="0" fill="#082765" d="M322.295,287.387c-4.029-0.451-6.285-3.382-5.804-7.682
		l0.864-7.703c0.478-4.256,3.343-6.746,7.373-6.294c4.029,0.453,6.228,3.511,5.752,7.767l-0.866,7.705
		C329.133,285.479,326.327,287.84,322.295,287.387L322.295,287.387z M326.887,272.346c0.203-1.793-0.639-3.202-2.52-3.411
		c-1.884-0.214-3.012,0.977-3.216,2.769l-1.015,9.048c-0.209,1.882,0.641,3.2,2.521,3.411c1.882,0.211,3.002-0.887,3.215-2.769
		L326.887,272.346L326.887,272.346z"/>
	<path id="path3494" inkscape:connector-curvature="0" fill="#082765" d="M341.312,290.56l3.609-14.985
		c0.424-1.752-0.279-3.081-1.769-3.439c-2.147-0.519-4.017,2.232-4.354,3.634l-3.229,13.409l-3.682-0.887l4.939-20.509l3.066,0.739
		l-0.721,4.139c1.848-2.848,3.771-3.729,5.877-3.222c3.286,0.794,4.444,3.483,3.621,6.9l-3.642,15.117L341.312,290.56z"/>
	<path id="path3496" inkscape:connector-curvature="0" fill="#082765" d="M366.292,280.319l-6.844,16.527l-3.496-1.447l6.841-16.528
		l-2.249-0.93l1.224-2.956l2.248,0.93l0.762-1.833c1.635-3.954,4.357-5.706,7.814-4.273l1.373,0.567l-1.225,2.957l-0.916-0.381
		c-1.663-0.688-2.721,0.094-3.428,1.801l-1.051,2.541l2.875,1.188l-1.225,2.958L366.292,280.319L366.292,280.319z"/>
	<path id="path3498" inkscape:connector-curvature="0" fill="#082765" d="M369.312,302.016c-3.574-1.915-4.586-5.472-2.541-9.286
		l3.66-6.832c2.021-3.771,5.604-5.021,9.182-3.105c3.572,1.915,4.48,5.57,2.456,9.344l-3.659,6.832
		C376.368,302.78,372.887,303.931,369.312,302.016L369.312,302.016z M379.155,289.755c0.853-1.588,0.595-3.211-1.073-4.104
		c-1.669-0.896-3.16-0.21-4.011,1.378l-4.302,8.024c-0.893,1.667-0.596,3.209,1.074,4.103c1.668,0.893,3.117,0.289,4.01-1.378
		L379.155,289.755z"/>
	<path id="path3500" inkscape:connector-curvature="0" fill="#082765" d="M389.361,296.454l-8.29,12.246l-3.14-2.123l11.834-17.472
		l2.611,1.77l-1.837,3.275c2.843-2.269,4.917-1.954,6.916,0.001l-2.147,3.172C392.265,294.663,390.45,294.85,389.361,296.454
		L389.361,296.454z"/>
	<path id="path3502" inkscape:connector-curvature="0" fill="#082765" d="M401.377,325.948c-1.09-1.018-1.551-2.369-0.265-3.818
		c-1.995,0.357-4.022-0.177-5.543-1.59c-2.343-2.182-2.41-5.08-0.104-7.554l0.338-0.364c3.256-3.495,7.699-1.388,11.717,1.308
		l1.996-2.144c1.106-1.188,1.189-2.466-0.097-3.664c-1.516-1.413-2.493-1.092-3.784,0.294l-0.735,0.791l-2.607-2.427l0.832-0.892
		c2.242-2.406,5.474-3.031,8.539-0.175c3.329,3.102,2.583,6.286,0.002,9.057l-7.616,8.179c-0.523,0.561-0.535,1.104,0.09,1.688
		l-1.938,2.078L401.377,325.948z M405.707,315.875c-3.273-2.371-5.579-2.672-7.178-0.957l-0.369,0.396
		c-0.922,0.989-1.129,2.336,0.023,3.411c1.318,1.229,3.496,1.47,4.789,0.085L405.707,315.875L405.707,315.875z"/>
	<path id="path3504" inkscape:connector-curvature="0" fill="#082765" d="M410.265,335.605l11.817-9.9
		c1.382-1.157,1.609-2.642,0.625-3.818c-1.417-1.69-4.558-0.593-5.661,0.334l-10.572,8.859l-2.434-2.904l16.172-13.548l2.027,2.418
		l-3.041,2.9c3.177-1.191,5.249-0.754,6.639,0.904c2.174,2.594,1.506,5.445-1.188,7.704l-11.925,9.986L410.265,335.605
		L410.265,335.605z"/>
	<path id="path3506" inkscape:connector-curvature="0" fill="#082765" d="M414.698,341.512l17.36-11.981l2.15,3.116l-17.361,11.98
		L414.698,341.512L414.698,341.512z M434.919,327.721l3.304-2.275l1.994,2.892l-3.302,2.278L434.919,327.721z"/>
	<path id="path3508" inkscape:connector-curvature="0" fill="#082765" d="M426.935,362.281l13.921-7.323
		c1.395-0.734,1.959-1.796,1.349-2.952c-0.984-1.873-3.986-0.904-5.266-0.232l-12.163,6.399l-1.785-3.39l13.962-7.346
		c1.395-0.734,1.998-1.714,1.391-2.869c-1.006-1.915-4.029-0.985-5.31-0.315l-12.203,6.421l-1.762-3.351l18.662-9.82l1.489,2.834
		l-3.084,1.877c3.059-0.385,4.729,0.569,5.672,2.362c0.945,1.795,0.354,3.479-1.207,4.964c2.639-0.216,4.147,0.619,5.091,2.416
		c1.235,2.352,0.136,4.612-2.854,6.187l-14.16,7.447L426.935,362.281z"/>
	<path id="path3510" inkscape:connector-curvature="0" fill="#082765" d="M433.325,380.35c-0.483-1.403-0.263-2.82,1.554-3.497
		c-1.929-0.617-3.475-2.04-4.152-3.999c-1.047-3.021,0.246-5.615,3.44-6.725l0.468-0.164c4.514-1.564,7.455,2.376,9.746,6.638
		l2.768-0.959c1.533-0.53,2.201-1.625,1.627-3.284c-0.68-1.958-1.694-2.133-3.483-1.512l-1.019,0.355l-1.172-3.364l1.152-0.398
		c3.106-1.079,6.254-0.118,7.629,3.841c1.49,4.3-0.656,6.765-4.233,8.006l-10.56,3.663c-0.727,0.252-0.99,0.725-0.711,1.533
		l-2.683,0.931L433.325,380.35L433.325,380.35z M441.867,373.475c-1.782-3.627-3.682-4.973-5.896-4.204l-0.512,0.179
		c-1.277,0.442-2.091,1.536-1.574,3.025c0.59,1.703,2.401,2.937,4.19,2.315L441.867,373.475z"/>
	<path id="path3512" inkscape:connector-curvature="0" fill="#082765" d="M434.545,383.853l29.129-7.267l0.917,3.674l-29.128,7.269
		L434.545,383.853z"/>
	<path id="path3514" inkscape:connector-curvature="0" fill="#082765" d="M436.909,396.804c-0.673-4.18,1.466-6.764,5.067-7.346
		l1.023-0.166l0.502,3.115l-0.935,0.149c-2.271,0.365-2.951,1.802-2.642,3.713c0.301,1.868,1.35,2.704,2.951,2.445
		c1.688-0.272,2.567-1.055,3.549-4.315c0.877-3.611,2.493-5.744,5.389-6.213c3.159-0.509,6.036,1.49,6.626,5.14
		c0.67,4.139-1.166,6.353-4.771,6.933l-0.8,0.129l-0.49-3.023l0.894-0.145c1.558-0.252,2.297-1.33,1.972-3.332
		c-0.271-1.688-1.276-2.534-2.566-2.325c-1.601,0.261-2.347,1.292-3.334,4.786c-0.922,3.616-2.711,5.274-5.646,5.749
		C440.631,402.595,437.549,400.765,436.909,396.804z"/>
</g>
<g id="g3516" transform="translate(-147.409,-257.72)">
	<path id="path3518" inkscape:connector-curvature="0" fill="#FFFFFF" d="M267.445,440.997h-19.848v-66.762h19.347
		c10.827,0,15.438,5.416,15.438,14.939v5.416c0,6.913-2.808,10.819-8.522,12.021c6.516,1.306,9.225,5.817,9.225,12.329v7.12
		C283.084,435.582,278.272,440.997,267.445,440.997z M273.06,388.97c0-3.809-1.504-6.517-6.016-6.517h-9.922v21.051h8.821
		c4.711,0,7.118-2.604,7.118-7.515L273.06,388.97L273.06,388.97L273.06,388.97z M273.561,418.542c0-4.912-2.506-7.52-7.118-7.52
		h-9.322v21.749h10.324c4.511,0,6.116-2.704,6.116-6.413V418.542z"/>
	<path id="path3520" inkscape:connector-curvature="0" fill="#FFFFFF" d="M310.055,442.5c-12.632,0-18.646-8.722-18.646-18.545
		V391.28c0-9.825,6.013-18.445,18.646-18.445c12.627,0,18.14,7.816,18.14,17.541v7.217h-8.521v-7.02c0-5.61-3.105-9.322-9.318-9.322
		c-6.313,0-9.426,3.812-9.426,8.924v34.882c0,5.111,3.112,8.926,9.426,8.926c6.214,0,9.318-3.609,9.318-9.326v-7.015h8.521v7.218
		C328.193,434.58,322.681,442.5,310.055,442.5L310.055,442.5z"/>
	<path id="path3522" inkscape:connector-curvature="0" fill="#FFFFFF" d="M362.781,440.997l-3.51-16.342h-14.437l-3.505,16.342
		h-9.227l15.139-66.762h10.025l15.136,66.762H362.781L362.781,440.997z M352.055,389.175l-5.512,27.362h11.026L352.055,389.175z"/>
</g>
</svg>
